<svg xmlns="http://www.w3.org/2000/svg" viewBox="0 0 214.15 186.1"><defs><style>.cls-1{fill:#ccf8f5;}</style></defs><title>Asset 76</title><g id="Layer_2" data-name="Layer 2"><g id="Main"><path class="cls-1" d="M113.72,186.1C60.65,182.65,0,144.05,0,74.44,0,31.7,21.37,0,61.34,0,88.91,0,113,23.43,113,50.32,113,80,93,98.56,70.3,98.56c-9,0-20-3.45-26.88-7.58-2.76-2.07-6.2-2.07-6.2,2.07,0,35.84,33.77,66.17,80.64,74.44ZM211.08,162c-38.83-2.55-84.31-31.17-84.31-82.77,0-31.68,16.35-55.18,45.47-55.18,20.44,0,38.32,17.37,38.32,37.3.51,22-14.82,35.77-31.68,35.77-6.64,0-14.82-2.56-19.41-5.62-2.56-1.53-4.6-1.53-4.6,1.53,0,26.57,24.53,49.05,59.27,55.18Z"/></g></g></svg>