<svg xmlns="http://www.w3.org/2000/svg" viewBox="0 0 180 80"><defs><style>.cls-1,.cls-4{fill:#fff;}.cls-2{fill:#231f20;}.cls-2,.cls-3,.cls-4{fill-rule:evenodd;}.cls-3{fill:#00aeef;}</style></defs><title>Asset 14</title><g id="Layer_2" data-name="Layer 2"><g id="Layer_1-2" data-name="Layer 1"><rect class="cls-1" width="180" height="80"/><path class="cls-2" d="M14.91,17.65l10.83.1a6,6,0,0,1,6,6c.17,3.68-1.77,7.7-7.84,7.9H20.31l-.05,7.27H15l-.08-21.29Zm5.41,4.09,0,5.91c.87.06,3.17,0,3.87,0,3.53,0,3.61-5.78.14-5.87Z"/><path class="cls-2" d="M44,17.5A11.49,11.49,0,0,1,55.65,28.79a11.68,11.68,0,0,1-23.34,0A11.49,11.49,0,0,1,44,17.5Zm0,4.24c4.07,0,6.22,3.16,6.22,7.05s-2.06,7-6.22,7.05-6.27-3.16-6.27-7.05,2.2-7.05,6.27-7.05Z"/><path class="cls-2" d="M104.27,17a11.49,11.49,0,0,1,11.67,11.29,11.68,11.68,0,0,1-23.35,0A11.49,11.49,0,0,1,104.27,17Zm0,4.24c4.07,0,6.22,3.16,6.22,7.06s-2.05,7-6.22,7.05S98,32.19,98,28.29s2.2-7.06,6.27-7.06Z"/><path class="cls-2" d="M57,17.6l10.83.1a6,6,0,0,1,6,6,6.38,6.38,0,0,1-3.48,6.43l0,0,7,8.81-7-.05-5.69-7.8-2.38,0,0,7.78H57.09L57,17.6Zm5.43,4v5.95c.87.07,3.17,0,3.87,0,3.53,0,3.63-5.89.16-6Z"/><polygon class="cls-2" points="74.81 17.62 93.48 17.62 93.48 22.21 86.86 22.21 86.86 38.96 81.48 38.96 81.48 22.21 74.81 22.21 74.81 17.62 74.81 17.62"/><path class="cls-2" d="M105,43.41a9.51,9.51,0,1,1-9.83,9.51A9.68,9.68,0,0,1,105,43.41Zm0,3.57c3.43,0,5.24,2.66,5.24,5.94s-1.73,5.86-5.24,5.94-5.28-2.66-5.28-5.94S101.64,47,105.06,47Z"/><path class="cls-2" d="M79.51,43.52l9.51.09a5.27,5.27,0,0,1,5.31,5.3,5.6,5.6,0,0,1-3.06,5.65h0l6.17,7.74-6.12,0-5-6.85H84.25l0,6.84H79.57l-.07-18.74Zm4.77,3.55v5.22c.77.06,2.78,0,3.4,0,3.1,0,3.19-5.18.14-5.26Z"/><path class="cls-2" d="M26.17,48.55l1.74-3.61s-4.28-2.42-8.51-1.27-5.85,6.73-2.27,9.2,6.45,1.93,6.22,4.09C23,60,17.77,58,15.44,57l-1.37,3.74a14.85,14.85,0,0,0,6,1.72c3.91.37,7.68-1.77,7.81-5.58.23-6.41-9.73-5-7.93-8.76.79-1.63,3.82-.68,6.16.46Z"/><polygon class="cls-2" points="41.72 43.97 41.72 47.9 34.4 47.9 34.4 50.76 41.07 50.76 41.07 54.7 34.4 54.7 34.4 57.91 42.27 57.91 42.27 61.85 29.73 61.87 29.73 43.97 41.72 43.97 41.72 43.97"/><path class="cls-2" d="M57.6,48.44c-6.14-2.55-10,.77-10.43,4.24-.36,3.26,2.43,6.65,8.27,5.46l0-6.3H60l0,8.5c-7.54,4.74-17.48.51-17.23-7.24.34-10.49,12-10.83,16.56-8.19L57.6,48.44Z"/><path class="cls-2" d="M66,43.58l-4.58-.05V54.59c-.09,5.21,4.14,7.72,8.39,7.71s8.53-2.57,8.44-7.71V43.52l-4.58.05,0,10.79c.07,2.64-1.31,3.86-3.81,3.86S66,57,66,54.37l0-10.79Z"/><path class="cls-3" d="M120.75,17h43.4a1.79,1.79,0,0,1,1.79,1.79V61.21A1.79,1.79,0,0,1,164.14,63h-43.4A1.79,1.79,0,0,1,119,61.21V18.79A1.79,1.79,0,0,1,120.75,17Z"/><path class="cls-4" d="M121.56,20c1.64-.08,21.57-.79,33,10.48,0,0-9.08-6.82-29.56-3.79A31.78,31.78,0,0,0,121.56,20Z"/><path class="cls-4" d="M159.89,38c-6.19-7-26.23-3.57-32.41-1.86A50.13,50.13,0,0,0,126,29.44c4.47-.68,30-4,33.93,8.52Z"/><path class="cls-4" d="M127.9,39.25c4.87-1.34,32.33-8.3,35.07,4.81-8.66-5.81-29.33.7-34.76,2.72a52.3,52.3,0,0,0-.11-5.31c-.05-.76-.12-1.49-.2-2.22Z"/><path class="cls-4" d="M127.94,50.42c11.71-4.86,48.18-14,32.21,6.25,3.45-6.39,1.46-7.22-3.22-7C148,50.19,129.55,58,125,60.26a27.22,27.22,0,0,0,2.92-9.84Z"/></g></g></svg>