<svg xmlns="http://www.w3.org/2000/svg" viewBox="0 0 1143.59 607.5"><defs><style>.cls-1{fill:#0078ff;}</style></defs><title>Asset 72</title><g id="Layer_2" data-name="Layer 2"><g id="Main"><path class="cls-1" d="M0,603.3c105.48-30.42,277.23-28.22,545.13-18.41,267.43,10,422.85,14.81,576.4-.8l-4.67,3.2c-132.55,18-268.83,19.41-528.33,9.81C262.3,584.88,80.28,582.88,0,607.5Z"/><path class="cls-1" d="M47.22,32.82C147.92,3.31,311.9,5.44,567.68,15,823,24.67,971.4,29.33,1118,14.18l-4.46,3.11C987,34.76,856.88,36.12,609.12,26.8,297.64,15,123.86,13,47.22,36.9Z"/><path class="cls-1" d="M1123.15,0c24.94,55.78,23.13,146.59,15.09,288.25-8.2,141.41-12.14,223.59.66,304.79l-2.62-2.47c-14.77-70.09-15.91-142.15-8-279.37,10-172.51,11.65-268.76-8.53-311.2Z"/></g></g></svg>