<svg xmlns="http://www.w3.org/2000/svg" xmlns:xlink="http://www.w3.org/1999/xlink" viewBox="0 0 49 40.01"><defs><style>.cls-1{fill:#ccf8f5;}.cls-1,.cls-2,.cls-3{stroke:#0078ff;stroke-miterlimit:10;stroke-width:2px;}.cls-2{fill:#fff;}.cls-3{fill:url(#linear-gradient);}.cls-4{fill:#0078ff;}</style><linearGradient id="linear-gradient" x1="3.5" y1="37.01" x2="3.5" y2="21.01" gradientUnits="userSpaceOnUse"><stop offset="0" stop-color="#66e9e0"/><stop offset="0.16" stop-color="#6aeae1"/><stop offset="0.32" stop-color="#77ebe3"/><stop offset="0.48" stop-color="#8beee8"/><stop offset="0.65" stop-color="#a8f3ed"/><stop offset="0.82" stop-color="#cef8f5"/><stop offset="0.99" stop-color="#fbfefe"/><stop offset="1" stop-color="#fff"/></linearGradient></defs><title>hand</title><g id="Layer_2" data-name="Layer 2"><g id="Elements"><circle class="cls-1" cx="29" cy="10.5" r="9.5"/><polyline class="cls-2" points="18 30.02 34.38 30.02 36.65 27.24 34.38 25.02 23.01 25.02 19.93 23.52 13.79 22.02 6 22.02 6.09 32.87 14.9 37.33 22.89 39 30.88 37.89 40.01 33.43 48 28.97 48 25.07 44.58 24.51 34.88 28.97"/><polyline class="cls-3" points="0 21.02 7 21.02 7 37.02 0 37.02"/><path class="cls-4" d="M29,9.5c-.36,0-1.81-.19-1.81-1S27.33,7,29,7a2,2,0,0,1,1.45.45,1.46,1.46,0,0,1,.36,1l2,.1a3.44,3.44,0,0,0-.89-2.42A3.45,3.45,0,0,0,30,5.1V4H28V5.09a3.14,3.14,0,0,0-2.81,3.36c0,2,2,3,3.81,3,0,0,1.81,0,1.81,1,0,.74-.14,1.45-1.81,1.45s-1.81-.74-1.81-1h-2A3.07,3.07,0,0,0,28,15.91V17h2V15.91a3.14,3.14,0,0,0,2.81-3.36C32.81,10.45,30.84,9.5,29,9.5Z"/></g></g></svg>