<svg xmlns="http://www.w3.org/2000/svg" viewBox="0 0 441.5 416.28"><defs><style>.cls-1{fill:#99c9ff;stroke:#cce4ff;stroke-miterlimit:10;opacity:0.3;}</style></defs><title>Asset 68</title><g id="Layer_2" data-name="Layer 2"><g id="Main"><path class="cls-1" d="M293.65,37.43c1.44,2.88-.48,3.83-4.07,4.07-15.1-1.2-51.52-.72-102.32,10.3,72.13,5,154.08,31.87,176.37,54.16,4.55,4.55,5.51,6.95,5.51,8.87s-2.64,4.55-7.19,3.83c-70.21-13.18-150-12-215.19.48,146.89,5,238.19,34,284.44,61.58,12.46,7.19,10.3,11.26,8.15,13.42-2.88,2.88-14.62,5.51-24.68,3.59-108.07-18.93-250.17-15.34-336.2,7.43,127.48-2.4,272.94,18.93,332.84,42.41,8.15,3.36,14.14,7.43,11,10.54-4.07,4.07-23.72,7.91-28.52,7.43-84.11-7.43-209.92,2.88-267.91,24.44,103,1,181.16,15.34,218.78,30,4.07,1.2,7.19,3.35,2.64,7.91-8.63,8.63-23.72,9.35-32.59,9.11-46.49-1.44-111.43,8.39-145.45,21.81,69,2.88,108.79,22,112.63,24,4.31,2.4,5.27,9.11-.72,15.1C275.44,403.58,266.34,405,263,405c-22.52,2.4-47.69,6.95-53.92,9.83-5.27,1.44-8.63,1.92-14.38-3.83a4.51,4.51,0,0,1,.48-6.23c13.9-13.9,62.3-12,78.12-14.86-37.86-18.21-93.46-21.57-111.19-21.57-6.95-.24-13.42-4.79-17.49-8.87-3.83-3.83-3.12-6.95,3.11-10.3,6.95-3.59,60.63-25.16,164.15-27.08-64.22-17.25-155.28-25.88-202.73-21.57-16.3,1.44-24-1-27.32-4.31-3.59-3.59-.24-7.91,5.27-11,42.65-24,146.41-38.1,286.12-37.38C294.13,223.38,113.45,205.17,29.1,220.5c-11,1.92-21.33-.72-27.8-7.19-2.64-2.64,1.68-6,6-7.91,63-27.08,246.58-46.73,394.67-26.6-119.1-51-245.86-54.64-314.15-44.81-5,.72-5.75,0-6-3.12-.24-4.55.72-8.39,10.54-13.9,22.53-12.46,148.57-30.19,242-18.69C253.64,58.75,155.87,61.63,153.23,61.87c-3.83.48-8.15-1.92-1.44-8.63,4.31-4.31,7.67-7.67,13.9-10.06,4.31-2.88,56.07-16.77,109.51-18-35.94-13.42-70-16.29-73.81-16.29-1.68-.24-1.92-1.44-1-3.83,1.2-3.59,6-4.55,10.78-4.55,8.15-.48,55.11,6.23,70.69,21.81A71.94,71.94,0,0,1,293.65,37.43Z"/></g></g></svg>