<svg xmlns="http://www.w3.org/2000/svg" viewBox="0 0 220 281.32"><defs><style>.cls-1{fill:#fff;}.cls-2{fill:#00dacc;}</style></defs><title>Asset 35</title><g id="Layer_2" data-name="Layer 2"><g id="Elements"><path class="cls-1" d="M110,281.32,0,243.21V0L110,13.93,220,0V243.21ZM12,234.64l98,33.94,98-33.94v-221L110,26.06,12,13.65Z"/><polygon class="cls-1" points="127.85 90.4 92.15 90.4 92.15 51.99 90.05 51.99 65.74 60.18 65.74 70.61 78.16 69.1 78.16 143.06 91.77 143.06 92.15 143.06 92.15 101.6 127.85 101.6 127.85 143.06 141.84 143.06 141.84 51.99 127.85 51.99 127.85 90.4"/><rect class="cls-2" x="46.19" y="160.27" width="127.63" height="11.19"/><path class="cls-1" d="M46.19,191.83h7.23v10.45h8.19V191.83h7.23v27.32H61.61V207.94H53.42v11.21H46.19Z"/><path class="cls-1" d="M103.48,205.49a14.29,14.29,0,0,1-3.44,9.8c-2.64,2.95-6.24,4.4-11,4.4s-8.42-1.42-11.06-4.4a14.29,14.29,0,0,1-3.44-10A14.12,14.12,0,0,1,78,195.7c2.72-3,6.28-4.4,11-4.4C97.85,191.3,103.48,196.81,103.48,205.49ZM82,205.38C82,211,84.53,214,89,214s7-3.1,7-8.53S93.45,197,89,197,82,200.06,82,205.38Z"/><path class="cls-1" d="M109.18,191.83h5.24l12.63,16v-16h6.51v27.71h-4.9l-13-17v16.57h-6.47Z"/><path class="cls-1" d="M140.48,191.83h7.23v27.32h-7.23Z"/><path class="cls-1" d="M155,211.69a12.09,12.09,0,0,0,7.5,2.33c3.29,0,4.71-.73,4.71-2.41a2.23,2.23,0,0,0-1-1.91c-.69-.46-.69-.46-4.25-1.65-5.2-1.72-7.73-4.59-7.73-8.73,0-5,3.52-8,9.38-8a17.93,17.93,0,0,1,8.65,2.07L170,198.45a12.63,12.63,0,0,0-6-1.49c-2.22,0-3.48.69-3.48,1.88a2.28,2.28,0,0,0,1,1.68c.73.5,1,.61,3.83,1.53,6.31,2.1,8.57,4.44,8.57,8.92,0,2.72-1,5.24-2.53,6.54-1.72,1.49-4.48,2.22-8.19,2.22-4.44,0-8.07-1-10.37-2.68Z"/></g></g></svg>