<svg xmlns="http://www.w3.org/2000/svg" viewBox="0 0 187.98 182.9"><defs><style>.cls-1{fill:#66e9e0;}</style></defs><title>Asset 139</title><g id="Layer_2" data-name="Layer 2"><g id="Elements"><path class="cls-1" d="M34.73,56.27C18,45.94,12,32.89,3,18.65c.66-8.76,4.64-9.19-3-18C-1.29-1,16.44.84,17.83,1.78,16.65,7.46,12.64,21,20,31.67c6.57,9.66,15.54,13.19,20.3,15.9,8.84,5,24.47,6.54,44.21,3.41,27.22-4.31,46.6-14.9,55.16-22.33a4.39,4.39,0,0,1,4.53-.43c.35.23,2.12,3.42,2.84,7.65,3.52,20.55-5.25,37.56-33.06,42-15,2.37-28.34-.43-40.12-4.64,13.2,8.9,42.8,23.88,73.81,52.51,17.09,15.51,32.6,37.92,34.13,50.41L188,178c-.61,1.83-3,3.95-6,4.42-9.57,1.52-36.81.34-67.95-23.65-33.32-26-52.77-73.19-61.21-86.6l-1.59-.33C57.37,86.23,61.05,95.19,63.75,111c2.79,16.33,3,47.82-8.66,67.88-1.46,2.26-2.21,3.24-4.45,2.73-2-1.12-4.92-1.82-6.6-4.45-5.2-5.25-15.24-17.25-20-45.12-5.16-30.13-.21-49.71,7.7-75.25ZM48.46,170.64c4.19-9.63,1.46-45.34-.35-59.52A374.87,374.87,0,0,0,39.87,63c-8.64,21.32-8.43,36.9-6.13,61.12C36.2,147.42,44.41,164.92,48.46,170.64ZM174.29,177c-31.48-26-82.7-73.95-112.46-104.22C88.59,130.45,137.69,175,174.29,177ZM141,45.51c2.22-5,.34-7-3.41-3.8-17,13.68-50.38,21.57-77.8,17.53a66.14,66.14,0,0,0,21.56,9.31c7.41,2,14.48,2,22.86.72C127.86,65.52,136.89,55.42,141,45.51Z"/></g></g></svg>