<svg xmlns="http://www.w3.org/2000/svg" viewBox="0 0 316.92 385.07"><defs><style>.cls-1{fill:#fff;}.cls-2{fill:#3393ff;}.cls-3{fill:none;stroke:#0078ff;stroke-miterlimit:10;stroke-width:5px;}.cls-4{fill:#0078ff;}.cls-5{fill:#00dacc;}</style></defs><title>Asset 145</title><g id="Layer_2" data-name="Layer 2"><g id="Elements"><g id="_Group_" data-name="&lt;Group&gt;"><path class="cls-1" d="M62.8,299.19c13.5-19.48,4-37.28,4-37.28a108.28,108.28,0,0,0,12.37-11.8s-55.64-7.78-68.41-24.6a12.89,12.89,0,0,1-1.06,3.71c-3.25,6.28-11.54,36.05-4.3,64.89,13.14,52.31,76.26,52.63,76.26,52.63l1,2L63.2,299.47Z"/><path class="cls-2" d="M210,259.92a75.88,75.88,0,0,0,10.1,15.43L256.34,250h0l.16,0c-2.15-8.62-4.17-22-4.19-41.87h-2.75c-9.9-75.55-64.94-66.43-66.57-66.15-4.44,3.21-10.19,5.14-17.61,5.16-51.8.17-58-27.24-60.08-47.65h0c.88,32.21-4.72,33.23-19,35.44-80.92,12.52-72.35,72.67-75.43,91.24,12.76,16.8,68.35,24.58,68.35,24.58a108.18,108.18,0,0,1-12.36,11.79s9.5,17.78-4,37.24l.39.28,19.4,49.22L99.28,383l89.47-1.34s1.69-38-.07-61.24c0,0,15.93-29.57,14.37-54.81A30.72,30.72,0,0,0,210,259.92Z"/><path class="cls-1" d="M100.09,48.63c-15.7,7.52,4.22,39.09,4.22,39.09a142.05,142.05,0,0,1,1.71-28C106.48,52.43,104.93,46.32,100.09,48.63Z"/><path class="cls-1" d="M106,59.76a142.05,142.05,0,0,0-1.71,28l1.59-26.47Q106,60.49,106,59.76Z"/><path class="cls-1" d="M183.06,141.25c22.42-16.19,11.29-64.86,11.29-64.86a84.76,84.76,0,0,0,5.19-9.15L180.81,55.48a36.93,36.93,0,0,1,20.25,8.41C219.53,20.3,176.81-5.42,139,4.7c-19.91,5.34-29.4,31.72-33,55.06q0,.73-.12,1.5l-1.59,26.47c.05,1.09.14,2.1.23,3,.25,2.46.46,5.14.76,8,2.11,20.43,8.28,47.87,60.13,47.7C172.86,146.4,178.61,144.46,183.06,141.25ZM157.31,49.17,125.14,39C143.74,33.79,157.31,49.17,157.31,49.17Zm-29.58,9.68L151,67.15S133.15,75.46,127.73,58.86Zm25.58,21.08,10.12-11.07s6.32,17.69,1.95,21.29S153.73,86,153.31,79.93Zm-1.52,26s1.45-14.93,4.56-5.58,10.46,6,10.46,6l-5.75,7.48A10.23,10.23,0,0,1,151.79,105.91Zm20.66-31.65,16.34,7.62S175.27,86.59,172.45,74.26Z"/><path class="cls-1" d="M125.14,39l32.17,10.16S143.74,33.79,125.14,39Z"/><path class="cls-1" d="M151,67.15l-23.31-8.3C133.15,75.46,151,67.15,151,67.15Z"/><path class="cls-1" d="M163.43,68.86,153.31,79.93c.41,6.07,7.7,13.81,12.07,10.22S163.43,68.86,163.43,68.86Z"/><path class="cls-1" d="M156.35,100.32c-3.11-9.34-4.56,5.58-4.56,5.58a10.23,10.23,0,0,0,9.28,7.94l5.75-7.48S159.46,109.67,156.35,100.32Z"/><path class="cls-1" d="M188.79,81.88l-16.34-7.62C175.27,86.59,188.79,81.88,188.79,81.88Z"/><path class="cls-1" d="M180.81,55.48l18.73,11.76c.55-1.13,1.06-2.24,1.52-3.35A36.93,36.93,0,0,0,180.81,55.48Z"/><path class="cls-1" d="M199.54,67.24l9.67,6.06a35.42,35.42,0,0,0-8.15-9.41C200.6,65,200.09,66.11,199.54,67.24Z"/><path class="cls-1" d="M256.46,249.42l-36.28,25.4C241.22,266.48,256,249.94,256.46,249.42Z"/><path class="cls-1" d="M294.56,108.89c0-12.62-12-4.33-12-4.33,4.47-20.16-16.18-4.09-16.18-4.09l1.23-23s.75-18-10.39-17.09c0,0-4.35,50.89-3.8,68h0c.47-6.17,2-11.23,5.43-12.56a65.8,65.8,0,0,0,18.72-11.74c6.63,10.36,0,16.32-4.7,19l2.41-.65c-1.67,6.87,17.63,4.73,19.17-11.2C294.53,110.39,294.56,109.61,294.56,108.89Z"/><path class="cls-1" d="M258.84,115.82c-3.47,1.33-5,6.39-5.43,12.56l19.43-5.28h0c4.72-2.7,11.33-8.65,4.7-19A65.8,65.8,0,0,1,258.84,115.82Z"/><path class="cls-1" d="M272.85,123.09l2.42-.65c-1.67,6.87,17.62,4.73,19.17-11.19a22.41,22.41,0,0,0,.12-2.35C296.68,110,307,116,301.15,125c-3.15,4.82-6.32,6.86-8.94,7.59,3,2.13,12.68,11.65,1.3,39.89,0,0,54.34,112.79-12.19,125.41-30.4,5.77-50.3-10-61.14-23,21-8.34,35.82-24.87,36.28-25.39h0l.16,0h0c-2.15-8.62-4.17-22-4.19-41.91a411.5,411.5,0,0,1,3.32-49.74s-3.29-16.92-2.36-29.34c.47-6.17,2-11.23,5.43-12.56a65.88,65.88,0,0,0,18.73-11.74C284.19,114.44,277.58,120.4,272.85,123.09Z"/><path class="cls-3" d="M291.41,132a6.18,6.18,0,0,1,.8.5c3,2.13,12.68,11.65,1.3,39.89,0,0,54.34,112.79-12.19,125.41-30.4,5.77-50.3-10-61.14-23a75.77,75.77,0,0,1-10.12-15.44"/><path class="cls-3" d="M105.29,98.65c.88,32.24-4.73,33.26-19,35.48-81,12.52-72.41,72.74-75.49,91.32,0,0,0,0,0,.07a12.91,12.91,0,0,1-1.06,3.64c-3.25,6.29-11.54,36-4.3,64.89,13.14,52.31,76.26,52.63,76.26,52.63l.84,1.71.14.27,16.63,33.89,89.55-1.33s1.69-38-.06-61.3c0,0,15.94-29.59,14.38-54.86a31,31,0,0,0,6.91-5.71l0,0c6.34-6.56,15.79-19.77,23.07-44.58"/><path class="cls-3" d="M275.27,122.44c-1.67,6.87,17.62,4.73,19.17-11.19a22.41,22.41,0,0,0,.12-2.35c0-12.62-12-4.34-12-4.34,4.48-20.16-16.18-4.08-16.18-4.08l1.23-23s.75-18-10.39-17.09c0,0-4.35,50.89-3.8,68"/><line class="cls-3" x1="272.85" y1="123.09" x2="275.27" y2="122.44"/><path class="cls-3" d="M183.05,141.25c1.64-.28,56.73-9.41,66.64,66.22"/><path class="cls-3" d="M294.19,108.71l.37.19C296.68,110,307,116,301.15,125c-3.15,4.82-6.32,6.86-8.94,7.59a8.52,8.52,0,0,1-6.32-.53"/><path class="cls-3" d="M270.18,154.1s8.42-14.25-1.17-29.25a22.23,22.23,0,0,0,3.82-1.75h0c4.73-2.69,11.34-8.65,4.71-19a65.88,65.88,0,0,1-18.73,11.74c-3.46,1.33-5,6.39-5.43,12.56-.93,12.42,2.36,29.34,2.36,29.34"/><path class="cls-3" d="M261.62,262.78s-2.57-3.67-5-13.4h0c-2.15-8.62-4.17-22-4.19-41.91a411.5,411.5,0,0,1,3.32-49.74"/><path class="cls-3" d="M91.92,210.1s8.1,16.48-12.76,40a107.93,107.93,0,0,1-12.37,11.79s9.51,17.8-4,37.28h0A56.74,56.74,0,0,1,52,310.71"/><path class="cls-3" d="M104.31,87.73s-19.92-31.58-4.22-39.09c4.84-2.32,6.38,3.79,5.92,11.12"/><polyline class="cls-3" points="83.7 351.47 82.62 348.73 82.48 348.39 63.19 299.47"/><path class="cls-3" d="M201.06,63.89c-1.44,3-4.69,9.37-6.71,12.5,0,0,11.13,48.68-11.3,64.86-4.44,3.22-10.19,5.15-17.62,5.17-51.85.17-58-27.26-60.13-47.69,0,0,0,0,0-.08-.29-2.8-.5-5.45-.76-7.89-.09-.93-.17-1.94-.22-3a141.63,141.63,0,0,1,1.7-28C109.63,36.42,119.12,10,139,4.7c37.78-10.12,80.5,15.61,62,59.19"/><path class="cls-3" d="M188.79,81.88s-13.52,4.71-16.34-7.62"/><path class="cls-3" d="M151,67.16s-17.89,8.3-23.31-8.3"/><path class="cls-3" d="M166.82,106.37s-7.36,3.3-10.47-6-4.56,5.58-4.56,5.58a10.23,10.23,0,0,0,9.27,7.94"/><path class="cls-3" d="M163.43,68.86s6.32,17.7,1.95,21.29S153.73,86,153.31,79.94"/><path class="cls-3" d="M209.21,73.31a35.47,35.47,0,0,0-8.15-9.42,37,37,0,0,0-20.25-8.41"/><line class="cls-3" x1="209.21" y1="73.31" x2="209.21" y2="73.32"/><path class="cls-3" d="M157.31,49.18S143.73,33.79,125.14,39"/><path class="cls-3" d="M256.46,249.43c-.46.52-15.25,17.05-36.28,25.39"/><line class="cls-3" x1="256.46" y1="249.43" x2="256.47" y2="249.42"/><path class="cls-3" d="M79.16,250.12s-55.64-7.79-68.41-24.6"/></g><polygon class="cls-4" points="181.29 232.78 163.66 225.18 166.75 185.67 184.69 189.35 202.99 188.5 199.9 228.01 181.29 232.78"/><polygon class="cls-1" points="187.38 205.94 179.98 205.36 180.59 197.5 180.16 197.47 174.99 198.75 174.82 200.88 177.42 200.77 176.24 215.9 179.06 216.12 179.14 216.13 179.8 207.65 187.21 208.22 186.54 216.7 189.44 216.93 190.9 198.31 188 198.08 187.38 205.94"/><rect class="cls-5" x="175.85" y="219.93" width="13.25" height="2.3" transform="matrix(1, 0.08, -0.08, 1, 17.78, -13.55)"/></g></g></svg>