<svg xmlns="http://www.w3.org/2000/svg" viewBox="0 0 311.72 42.57"><defs><style>.cls-1,.cls-2{fill:#fff;}.cls-1{opacity:0.9;}.cls-2{opacity:0.7;}</style></defs><title>Asset 58</title><g id="Layer_2" data-name="Layer 2"><g id="Main"><path class="cls-1" d="M0,40.66C16,27.14,48.45,16,84.79,14.95c25.74-.73,57.45,1.32,87.55,6,29.12,4.56,56.64,8.67,82.2,8.23,32-.59,50.32-11.46,57.09-16.31l.09,2.2C299,26.85,269,37.14,248.13,37.73c-16.3.29-46.13-2.79-79.89-8.08-27.34-4.26-57.36-7.2-87.28-6.47-31.08.88-59,4.11-81,19.4Z"/><path class="cls-2" d="M311.29,25.47C292.5,12.35,268.68,9.58,242.13,8.82c-25.56-.63-51.2,1.89-74.56,5.55-28.84,4.54-54.32,7.19-68.25,6.93C81.52,20.8,55.88,12,45,1.89L45.08,0c5.78,4.16,21.46,13.49,48.77,14,21.84.38,45.34-3.15,70.22-7.06,25.72-4,52.8-5.8,74.79-5.17,31,.88,58.74,10.46,72.43,22.06Z"/></g></g></svg>