<svg xmlns="http://www.w3.org/2000/svg" viewBox="0 0 124 31"><defs><style>.cls-1{fill:#fff;opacity:0.8;}.cls-1,.cls-2{stroke:#66e9e0;}.cls-1,.cls-2,.cls-3{stroke-miterlimit:10;stroke-width:2px;}.cls-2,.cls-3{fill:#99f0eb;}.cls-3{stroke:#fff;}.cls-4{fill:#66e9e0;}</style></defs><title>Asset 108</title><g id="Layer_2" data-name="Layer 2"><g id="Main"><rect class="cls-1" x="1" y="1" width="122" height="29" rx="3" ry="3"/><path class="cls-2" d="M1,1H28a3,3,0,0,1,3,3V27a3,3,0,0,1-3,3H1a0,0,0,0,1,0,0V1A0,0,0,0,1,1,1Z" transform="translate(32 31) rotate(180)"/><circle class="cls-3" cx="16.5" cy="15.5" r="4.5"/><path class="cls-4" d="M45.49,16.14c-1.85-.73-2.55-1.53-2.55-2.9,0-1.65,1.25-2.62,3.38-2.62h.28l.22-1.18h1.36l-.27,1.4a5.08,5.08,0,0,1,1.5.5l-.66,1.41a2.09,2.09,0,0,0-.62-.22l-.45-.11-.13,0-.41,2.37c2.16.77,2.87,1.5,2.87,3a2.72,2.72,0,0,1-.9,2.13,5,5,0,0,1-3,.77H46L45.73,22H44.37l.29-1.57a4.48,4.48,0,0,1-2.17-.77l.67-1.48a3.88,3.88,0,0,0,1.85.7Zm.76-3.92a2.8,2.8,0,0,0-.91.14.8.8,0,0,0-.6.76,1,1,0,0,0,.59.87,6.28,6.28,0,0,0,.59.28ZM46.36,19a3.29,3.29,0,0,0,1.09-.17.94.94,0,0,0,.69-1,1.06,1.06,0,0,0-.66-1,6.06,6.06,0,0,0-.73-.31Z"/><path class="cls-4" d="M53.36,10.63V17a2.49,2.49,0,0,0,.29,1.54,1.82,1.82,0,0,0,1.53.59,1.69,1.69,0,0,0,1.58-.7A2.84,2.84,0,0,0,57,17v-6.4h2.1v5.67c0,1.72-.17,2.55-.64,3.19a3.88,3.88,0,0,1-3.28,1.32,3.69,3.69,0,0,1-3.4-1.54,5.66,5.66,0,0,1-.5-3V10.63Z"/><path class="cls-4" d="M70.89,15.63c0,3.53-1.16,5.18-3.66,5.18s-3.66-1.65-3.66-5.24,1.19-5.13,3.66-5.13S70.89,12.11,70.89,15.63Zm-5-2.42a7.79,7.79,0,0,0-.31,2.38c0,2.47.52,3.6,1.67,3.6s1.67-1.13,1.67-3.56a7.26,7.26,0,0,0-.36-2.58,1.31,1.31,0,0,0-1.3-1C66.55,12.08,66.14,12.41,65.87,13.21Z"/><path class="cls-4" d="M74.57,19.6a1.28,1.28,0,1,1-1.27-1.21A1.17,1.17,0,0,1,74.57,19.6Z"/><path class="cls-4" d="M83,15.63c0,3.53-1.16,5.18-3.66,5.18s-3.66-1.65-3.66-5.24,1.19-5.13,3.66-5.13S83,12.11,83,15.63Zm-5-2.42a7.79,7.79,0,0,0-.31,2.38c0,2.47.52,3.6,1.67,3.6S81,18.06,81,15.63a7.26,7.26,0,0,0-.36-2.58,1.31,1.31,0,0,0-1.3-1C78.67,12.08,78.26,12.41,78,13.21Z"/><path class="cls-4" d="M91,15.63c0,3.53-1.16,5.18-3.66,5.18s-3.66-1.65-3.66-5.24,1.19-5.13,3.66-5.13S91,12.11,91,15.63Zm-5-2.42a7.79,7.79,0,0,0-.31,2.38c0,2.47.52,3.6,1.67,3.6S89,18.06,89,15.63a7.26,7.26,0,0,0-.36-2.58,1.31,1.31,0,0,0-1.3-1C86.68,12.08,86.27,12.41,86,13.21Z"/><path class="cls-4" d="M99,15.63c0,3.53-1.16,5.18-3.66,5.18s-3.66-1.65-3.66-5.24,1.19-5.13,3.66-5.13S99,12.11,99,15.63Zm-5-2.42a7.79,7.79,0,0,0-.31,2.38c0,2.47.52,3.6,1.67,3.6S97,18.06,97,15.63a7.26,7.26,0,0,0-.36-2.58,1.31,1.31,0,0,0-1.3-1C94.69,12.08,94.28,12.41,94,13.21Z"/></g></g></svg>