<svg xmlns="http://www.w3.org/2000/svg" viewBox="0 0 206.79 235.9"><defs><style>.cls-1{fill:#66e9e0;}</style></defs><title>Asset 71</title><g id="Layer_2" data-name="Layer 2"><g id="Main"><path class="cls-1" d="M87.51,1.26C98,2.84,112.39,18.2,115.44,27.56c2.95,9.06,2.13,10.66-2.38,24.48-3.6,12.52-3.56,36.22-2.52,44.56.55,7.83,3.18,4.64,5.52-.46,1.14-4.71,1.59-12.54,5.23-30.08C124.83,48.2,138,40.56,142.78,36.68c4.44-3.78,4.34-4.09,8.45-2.75,1.6.81,10,8.1,13.62,19.27,6.09,18.72,0,43.07-8.2,52.75-4.35,5.09-9.51,10.78-20.76,25.45-11.55,14.78-.61,15.56,2.71,14.48,17.21-5.6,36.79-50,43.17-72.48,2.06-7,9.09-8,11.2-8.66,1.81-.59,6.19,5.66,8.54,12.91,8.16,25.05,9.23,59.09-14.38,75.79-9.18,6.66-29.22,14.86-43,20.68s-18.29,16.64-18,26.88c1,10.35,4.56,22.22,5.44,25.94.39,2.21-4.44,3.78-8.16,3.66-1.43,3.81-8.28,7.37-7.76,3.86.86-8.63,1.05-21.38-3-33.75-3-9.36-8.73-14.52-21.36-17.42-13-3.1-19,4.18-22.94,7.47-4.64,3.18-8.58,6.47-26.21,1.52-18-5.15-24.86-19.95-30.61-30.43-5.35-10.28-10-20.45-11.33-30.7S2.72,111,7.55,109.43c4.23-1.38,15.59,11,32,30.64,17.33,20.4,35.63,16.11,42.27,13.95,6.34-2.06,6.14-2.67,4.47-7.8s-5.44-11.58-24-15.23c-15-3.12-21.46-3.36-27.06-7.21C30,120.83,21.81,108.12,18,96.35c-3.74-11.47-.89-31.43-.15-36.34.23-4.41.84-4.61,5.35-4.08,4.61.83,27.61,14,33.08,21.61,5.27,8,11.21,19.05,22.62,24.35,11.11,5.4,12.25-.32,9.5-8.77S76.56,74.27,60.5,59.8c-16.26-15.07-5.59-33.57-1.79-45.49C62.39,4.1,66.62,1.72,69.34.83,73.27-.44,76.68-.22,87.51,1.26ZM15.56,141.21c1.87,5.73,8.31,18.33,17.38,26.72,9,9.1,36.19,7.58,39.81,6.4,3.32-1.08,5.95-3.27,3.36-6.1-2.49-2.53-2.69-3.13-7.81-3.47-5.72-.14-26.42,1.92-48.33-23.33C15.1,135.68,13.89,136.08,15.56,141.21Zm16-61.63c-1.23,3.4-2.07,9,1.8,15.77C41.58,110.37,55.08,117,69,119.8c6.82,1.45,9.64-.13,5.24-3.38-17.89-11.87-34.58-22.12-38.61-34.5C34.47,78.29,32.08,76.07,31.55,79.58Zm74,77.71c1.42,12.56,4.18,19,6.57,22.23,3.09,3.33,7.2,3.66,6.84-1.56-.47-4.52-2-12.36-5.49-33.27-3.08-19.7-9.91-32.49-12.71-34.92-2.59-2.83-7.9-4.77-5.13,1.67C98.25,117.29,103.54,135.6,105.6,157.29ZM95.83,75c3.85-4.59,3.17-7.71,1.49-12.84C92.41,47.07,85.82,27.85,80.15,20.69c-5.17-6.66-10.28-8-4.05,5,4.16,8.66,12.27,40.74,13.74,45.27C91.9,77.29,92.6,77.39,95.83,75Zm47.42-5.09c-1.77,8.92-7.8,25.24-16.31,36-5.26,6.39-7.9,9.58-3.18,9.72A17.07,17.07,0,0,0,135,110.31c4.56-5.49,12-14.27,14.33-25.7A95.72,95.72,0,0,0,151,61c-.27-3.92-1.26-6.94-2.48-4.54C145.33,59.89,146.35,57.89,143.25,69.91Zm12.91,78.59c-2.63,2.19-4.16,5.69,1.47,4.53,7-1,12.78-3.83,19.64-9.4,7.67-6.17,18.05-26.58,15.44-40.75-1.66-7.14-5.34-11.28-5.89-4.76C184.61,113.87,173.82,134.08,156.16,148.51Z"/></g></g></svg>