<svg xmlns="http://www.w3.org/2000/svg" xmlns:xlink="http://www.w3.org/1999/xlink" viewBox="0 0 23 28"><defs><style>.cls-1{fill:url(#linear-gradient);}.cls-2{fill:none;stroke:#0078ff;stroke-miterlimit:10;stroke-width:3px;}</style><linearGradient id="linear-gradient" x1="11.26" y1="26.5" x2="11.26" y2="1.5" gradientUnits="userSpaceOnUse"><stop offset="0" stop-color="#66e9e0"/><stop offset="1" stop-color="#fff"/></linearGradient></defs><title>Asset 101</title><g id="Layer_2" data-name="Layer 2"><g id="Elements"><path class="cls-1" d="M21.26,9.42v7.93a6.25,6.25,0,0,1-3.15,5.43l-6.23,3.56a1.25,1.25,0,0,1-1.24,0L4.41,22.77a6.25,6.25,0,0,1-3.15-5.42V4a1.24,1.24,0,0,1,.89-1.2,33,33,0,0,1,9.11-1.3,33,33,0,0,1,9.09,1.3,1.25,1.25,0,0,1,.86,1.55"/><path class="cls-2" d="M7.63,12.53,11.5,16.4l7.87-7.87a1.25,1.25,0,0,1,2.13.88v7.93a6.25,6.25,0,0,1-3.15,5.42l-6.23,3.56a1.25,1.25,0,0,1-1.24,0L4.65,22.77A6.25,6.25,0,0,1,1.5,17.35V4a1.25,1.25,0,0,1,.91-1.2A33,33,0,0,1,11.5,1.5a33,33,0,0,1,9.09,1.3,1.25,1.25,0,0,1,.86,1.55"/></g></g></svg>