<svg xmlns="http://www.w3.org/2000/svg" viewBox="0 0 280 43.27"><defs><style>.cls-1{fill:#fff;opacity:0.7;}</style></defs><title>Asset 59</title><g id="Layer_2" data-name="Layer 2"><g id="Main"><path class="cls-1" d="M83,17.7c13.9,13.17,31.52,16,51.16,16.71,18.91.63,37.88-1.9,55.16-5.57,21.33-4.56,40.19-7.22,50.49-7C253,22.38,272,31.24,280,41.37l-.06,1.9c-4.28-4.18-15.87-13.55-36.08-14.05-16.15-.38-33.55,3.16-52,7.09-19,4.05-39.06,5.82-55.33,5.19C113.62,40.61,93.13,31,83,19.34Z"/><path class="cls-1" d="M0,0C10.66,9.17,24.16,11.11,39.22,11.64A194.33,194.33,0,0,0,81.5,7.76c16.35-3.17,30.8-5,38.7-4.85,10.1.35,24.63,6.53,30.8,13.58l0,1.32C147.68,14.9,138.79,8.38,123.3,8c-12.38-.26-25.71,2.2-39.82,4.94a196.83,196.83,0,0,1-42.41,3.62C23.47,16,7.77,9.26,0,1.15Z"/></g></g></svg>