<svg xmlns="http://www.w3.org/2000/svg" viewBox="0 0 334.79 372.05"><defs><style>.cls-1{fill:#fff;}.cls-2{fill:#3393ff;}.cls-3{fill:#dbecff;}.cls-4{fill:#66aeff;}.cls-5{fill:none;}.cls-5,.cls-6{stroke:#0078ff;stroke-miterlimit:10;stroke-width:5px;}.cls-6,.cls-7{fill:#0078ff;}</style></defs><title>Asset 141</title><g id="Layer_2" data-name="Layer 2"><g id="Elements"><g id="_Group_" data-name="&lt;Group&gt;"><path class="cls-1" d="M264.55,275.52a19.72,19.72,0,0,1-.29-6.6l.13,0c39.36,13.84,67.72-7.46,67.72-7.46,1.95,39.57-11.54,71.57-54.08,71.57-8.49,0-17.3-4-25.82-10.22C223.57,302,198.1,256.6,198.1,256.6c-5.92,1.05-11-1.46-14.8-4.69.11.29,1.93,5.5-14.76.59-13.4-4-16.49-8.8-12.89-14.5l-1.16-.56c-4-3.24-5.1-6.17-3.56-9.32l-.46-.25c-6.62-9.7,3.27-14.76,10.33-17l-.1-.3c-32-18-20-23-20-23s6,1,14.13,5.62c7.66,4.35,11.55,5,24.32,11.25,14.55,7.13,18.77,18.07,29.55,25.13,36.26,23.73,55.69,46,55.69,46Z"/><path class="cls-2" d="M114.45,250.85l-.4.1s-12.12-1.61-25.87-10.65c-.55-4.15-1.22-9.15-2-14.67l.54-.08s4-57,46-69c43.45-12.41,53.26-23.4,55.43-28.3,14.09,11.83,38.95,14.71,58.38,4.9l.19.4s.62,9.47,33.63,31c43,28,44.4,42.26,49.94,79a178.35,178.35,0,0,1,1.83,18s-28.36,21.3-67.72,7.46l-.13,0a19.72,19.72,0,0,0,.29,6.6l-.16,0s-19.43-22.27-55.69-46c-10.78-7.06-15-18-29.55-25.13-12.77-6.25-16.66-6.9-24.32-11.25-8.13-4.62-14.13-5.62-14.13-5.62s-12,5,20,23l.1.3c-7.06,2.26-16.95,7.32-10.33,17l.46.25c-1.54,3.15-.48,6.08,3.56,9.32l1.16.56c-3.6,5.7-.51,10.55,12.89,14.5,16.69,4.91,14.87-.3,14.76-.59,3.84,3.23,8.88,5.74,14.8,4.69,0,0,25.47,45.4,54.11,66.23-7.86,14-11.5,46.72-11.5,46.72h-87c-13.32-21-21.13-46.21-25.58-65.79a267.12,267.12,0,0,1-5.42-32.21A81.45,81.45,0,0,1,114.45,250.85Z"/><path class="cls-1" d="M188.14,128.25a32.77,32.77,0,0,1-3.73-3.62c-20.79-23.62-1.6-45.92-1.6-45.92s1-17.14,11.63-39.78c1.88-4,4.05-8.11,6.57-12.35,24.5-41.27,61.17-19.59,71-7.36s13.51,54.79-3.05,90.71a48.21,48.21,0,0,1-22.41,23.22C227.09,143,202.23,140.08,188.14,128.25Z"/><path class="cls-1" d="M211.84,55.35a1.55,1.55,0,0,1-1.3,2.81,1.55,1.55,0,1,1,1.3-2.81Z"/><path class="cls-1" d="M89.7,252.5c-.06-.54-.6-5.14-1.52-12.2C101.93,249.34,114,251,114,251l.4-.1a81.45,81.45,0,0,0,8.26,20.7,267.12,267.12,0,0,0,5.42,32.21c-30.62,9-72.43,3.75-87.42-39.21C28.8,230.43,39.5,154.21,39.5,154.21a43.93,43.93,0,0,1-15.19-20.89l32.52,2a6.91,6.91,0,0,0,3-.47,32.65,32.65,0,0,0,1.5,5.21Z"/><path class="cls-1" d="M88.18,240.3c.92,7.06,1.46,11.66,1.52,12.2L61.28,140.07a32.65,32.65,0,0,1-1.5-5.21,7,7,0,0,0,4.47-6.09l1.08-17.5a15.46,15.46,0,0,1,1-1.18c-.29-.56-.57-1.11-.83-1.65l1.9-30.83c2.9-1.7,9.39-2.14,9.45,3.57.07,6.55-7.11,10.67-3,22.32s18.17,32.63-2.57,48.1c6,16.93,11.46,50.29,14.85,74C87,231.15,87.63,236.15,88.18,240.3Z"/><path class="cls-3" d="M24.31,133.32l-8.3-.51a7,7,0,0,1-6.56-7.42l0-.71c2.81,1.83,5.82,3.51,6.88,3.15,4.09-1.39-.66-9.28-.66-9.28a65.91,65.91,0,0,0-5.54-4.84l.43-6.89a11.37,11.37,0,0,0,8.94,1.51,4.67,4.67,0,0,0,1.79-.92A7,7,0,0,0,27,111.1l21.48,1.32a7,7,0,0,0,7.42-6.55l3.22-52.23a7,7,0,0,0-6.55-7.42L31.13,44.9a7,7,0,0,0-7.41,6.55L23,62.83l-.28-.26s-4.49-2.48-9.13-4.65l1.12-18.1a7,7,0,0,1,7.42-6.56L63,35.78a7,7,0,0,1,6.55,7.42L67.4,77.61a4.1,4.1,0,0,0-1,.83c-3,3.65-9.07,13.07-.87,30l-.17,2.83a29.09,29.09,0,0,0-5.55,23.59,6.91,6.91,0,0,1-3,.47Z"/><path class="cls-1" d="M67.4,77.61l-1.9,30.83c-8.2-16.93-2.15-26.35.87-30A4.1,4.1,0,0,1,67.4,77.61Z"/><path class="cls-1" d="M65.33,111.27l-1.08,17.5a7,7,0,0,1-4.47,6.09A29.09,29.09,0,0,1,65.33,111.27Z"/><path class="cls-4" d="M52.62,46.22a7,7,0,0,1,6.55,7.42l-3.22,52.23a7,7,0,0,1-7.42,6.55L27,111.1a7,7,0,0,1-5.72-3.69c1.77-1.56.51-4-.71-5.72l.27-4.33c4.36-.09,6.2-5.67,1.25-9.72l-.63-.36.9-14.56c3.75-.29,5-5.62.61-9.89l.7-11.38a7,7,0,0,1,7.41-6.55Z"/><path class="cls-1" d="M23,62.83c4.4,4.27,3.14,9.6-.61,9.89Z"/><path class="cls-3" d="M23,62.83l-.61,9.89a3.74,3.74,0,0,1-1.05,0,39.83,39.83,0,0,1-8.46-3.18l.71-11.59c4.64,2.17,9.13,4.65,9.13,4.65Z"/><path class="cls-1" d="M22.14,87.64c4.95,4,3.11,9.63-1.25,9.72l.62-10.08Z"/><path class="cls-3" d="M22.41,72.72l-.9,14.56a65.38,65.38,0,0,0-9.43-4.44l.82-13.33a39.83,39.83,0,0,0,8.46,3.18A3.74,3.74,0,0,0,22.41,72.72Z"/><path class="cls-1" d="M21.51,87.28l-.62,10.08-.63,0A26.07,26.07,0,0,1,11.39,94l.69-11.16A65.38,65.38,0,0,1,21.51,87.28Z"/><path class="cls-1" d="M20.62,101.69c1.22,1.67,2.48,4.16.71,5.72a6.86,6.86,0,0,1-.83-3.73Z"/><path class="cls-1" d="M20.89,97.36l-.27,4.33A14.41,14.41,0,0,0,19.15,100a48.11,48.11,0,0,0-7.81-5.15l.05-.8a26.07,26.07,0,0,0,8.87,3.33Z"/><path class="cls-1" d="M20.62,101.69l-.12,2a6.86,6.86,0,0,0,.83,3.73,4.67,4.67,0,0,1-1.79.92,11.37,11.37,0,0,1-8.94-1.51l.74-12A48.11,48.11,0,0,1,19.15,100,14.41,14.41,0,0,1,20.62,101.69Z"/><path class="cls-1" d="M15.71,118.55s4.75,7.89.66,9.28c-1.06.36-4.07-1.32-6.88-3.15l.68-11A65.91,65.91,0,0,1,15.71,118.55Z"/><path class="cls-1" d="M13.61,57.92,12.9,69.51c-6.27-3.1-13-8.24-9.37-14.4C4.23,53.93,9,55.78,13.61,57.92Z"/><path class="cls-1" d="M12.08,82.84,11.39,94C7.5,91.6,4.6,87.87,8.1,82.71,8.6,82,10.16,82.2,12.08,82.84Z"/><path class="cls-1" d="M11.34,94.8l-.74,12a15.87,15.87,0,0,1-5.08-4.57c-1.94-2.93-.81-6.7,2.86-8.06A4.47,4.47,0,0,1,11.34,94.8Z"/><path class="cls-1" d="M10.17,113.71l-.68,11c-3-1.94-5.75-4-5.75-4-2.07-1.91.22-8.32,2.34-8.91C6.89,111.5,8.5,112.45,10.17,113.71Z"/><path class="cls-5" d="M13.61,57.92c-4.62-2.14-9.38-4-10.08-2.81-3.65,6.16,3.1,11.3,9.37,14.4"/><path class="cls-5" d="M188.14,128.25c-2.17,4.9-12,15.89-55.43,28.3-42,12-46,69-46,69"/><path class="cls-5" d="M128.21,303.74l-.08,0c-30.62,9-72.43,3.75-87.42-39.21C28.8,230.43,39.5,154.21,39.5,154.21a43.93,43.93,0,0,1-15.19-20.89"/><line class="cls-5" x1="65.5" y1="108.44" x2="65.33" y2="111.27"/><path class="cls-5" d="M12.08,82.84l.82-13.33.71-11.59,1.12-18.1a7,7,0,0,1,7.42-6.56L63,35.78a7,7,0,0,1,6.55,7.42L67.4,77.61"/><line class="cls-5" x1="11.34" y1="94.8" x2="11.39" y2="94"/><line class="cls-5" x1="10.17" y1="113.71" x2="10.6" y2="106.82"/><path class="cls-5" d="M59.78,134.86a6.91,6.91,0,0,1-3,.47l-32.52-2-8.3-.51a7,7,0,0,1-6.56-7.42l0-.71"/><path class="cls-5" d="M21.51,87.28l.9-14.56L23,62.83l.7-11.38a7,7,0,0,1,7.41-6.55l21.49,1.32a7,7,0,0,1,6.55,7.42l-3.22,52.23a7,7,0,0,1-7.42,6.55L27,111.1a7,7,0,0,1-5.72-3.69"/><line class="cls-5" x1="20.62" y1="101.69" x2="20.89" y2="97.36"/><path class="cls-5" d="M61.28,140.07a32.65,32.65,0,0,1-1.5-5.21,29.09,29.09,0,0,1,5.55-23.59,15.46,15.46,0,0,1,1-1.18c-.29-.56-.57-1.11-.83-1.65-8.2-16.93-2.15-26.35.87-30a4.1,4.1,0,0,1,1-.83c2.9-1.7,9.39-2.14,9.45,3.57.07,6.55-7.11,10.67-3,22.32s18.17,32.63-2.57,48.1c6,16.93,11.46,50.29,14.85,74,.79,5.52,1.46,10.52,2,14.67.92,7.06,1.46,11.66,1.52,12.2"/><line class="cls-5" x1="89.71" y1="252.55" x2="89.7" y2="252.5"/><path class="cls-5" d="M10.17,113.71c-1.67-1.26-3.28-2.21-4.09-2-2.12.59-4.41,7-2.34,8.91,0,0,2.77,2.11,5.75,4,2.81,1.83,5.82,3.51,6.88,3.15,4.09-1.39-.66-9.28-.66-9.28A65.91,65.91,0,0,0,10.17,113.71Z"/><path class="cls-5" d="M11.34,94.8a4.47,4.47,0,0,0-3-.61c-3.67,1.36-4.8,5.13-2.86,8.06a15.87,15.87,0,0,0,5.08,4.57,11.37,11.37,0,0,0,8.94,1.51,4.67,4.67,0,0,0,1.79-.92c1.77-1.56.51-4-.71-5.72A14.41,14.41,0,0,0,19.15,100,48.11,48.11,0,0,0,11.34,94.8Z"/><path class="cls-5" d="M20.89,97.36c4.36-.09,6.2-5.67,1.25-9.72l-.63-.36a65.38,65.38,0,0,0-9.43-4.44c-1.92-.64-3.48-.85-4-.13C4.6,87.87,7.5,91.6,11.39,94a26.07,26.07,0,0,0,8.87,3.33Z"/><path class="cls-5" d="M132.71,181.55s-27.93,29.4-18.26,69.3a81.45,81.45,0,0,0,8.26,20.7,267.12,267.12,0,0,0,5.42,32.21c4.45,19.58,12.26,44.78,25.58,65.79h87s3.64-32.76,11.5-46.72a21.93,21.93,0,0,1,1.82-2.78"/><path class="cls-5" d="M255.61,212.64s-11.14,34.77,8.83,55.33a9.58,9.58,0,0,0-.18,1,19.72,19.72,0,0,0,.29,6.6c.87,4.12,3.24,9.33,9.21,14.11"/><path class="cls-5" d="M332.11,261.48s-28.36,21.3-67.72,7.46"/><path class="cls-5" d="M114,251s-12.12-1.61-25.87-10.65l-.7-.46"/><path class="cls-5" d="M194.44,38.93c-10.68,22.64-11.63,39.78-11.63,39.78s-19.19,22.3,1.6,45.92a32.77,32.77,0,0,0,3.73,3.62c14.09,11.83,38.95,14.71,58.38,4.9a48.21,48.21,0,0,0,22.41-23.22C285.49,74,281.78,31.45,272,19.22s-46.47-33.91-71,7.36C198.49,30.82,196.32,35,194.44,38.93Z"/><path class="cls-5" d="M200.71,105.55s29,22,47-7"/><path class="cls-5" d="M188,35a26.72,26.72,0,0,0,6.42,4c5.75,2.61,15,4.76,26.31,0"/><path class="cls-5" d="M236.3,42.06s20.07,11.79,33,4.15"/><path class="cls-5" d="M224.16,60s-3,16.43-10,21.74,7.74,11.06,16.58.35"/><path class="cls-6" d="M209.78,56.1a1.55,1.55,0,1,1,.76,2.06A1.55,1.55,0,0,1,209.78,56.1Z"/><path class="cls-6" d="M241.7,59.1a1.55,1.55,0,1,1,.76,2.06A1.55,1.55,0,0,1,241.7,59.1Z"/><path class="cls-5" d="M264.39,275.55s-19.43-22.27-55.69-46c-10.78-7.06-15-18-29.55-25.13-12.77-6.25-16.66-6.9-24.32-11.25-8.13-4.62-14.13-5.62-14.13-5.62s-12,5,20,23"/><path class="cls-5" d="M183.3,251.91c3.84,3.23,8.88,5.74,14.8,4.69,0,0,25.47,45.4,54.11,66.23,8.52,6.2,17.33,10.22,25.82,10.22,42.54,0,56-32,54.08-71.57a178.35,178.35,0,0,0-1.83-18c-5.54-36.71-6.94-51-49.94-79-33-21.5-33.63-31-33.63-31"/><path class="cls-5" d="M175.11,241.82a37.81,37.81,0,0,0,8.18,10.08"/><path class="cls-5" d="M164.43,243.47s11.5.82,15.6-7.39"/><path class="cls-5" d="M183.29,251.9h0c.11.29,1.93,5.5-14.76.59-13.4-4-16.49-8.8-12.89-14.5a15.94,15.94,0,0,1,1.05-1.45,37.43,37.43,0,0,1,15.12-10.79"/><path class="cls-5" d="M166.89,209.34a47.48,47.48,0,0,0-6.09,1.51c-7.06,2.26-16.95,7.32-10.33,17"/><path class="cls-5" d="M154.49,237.44c-4-3.24-5.1-6.17-3.56-9.32a11.52,11.52,0,0,1,1.77-2.57c3.95-4.49,7-5,16-8"/><polygon class="cls-7" points="214.58 224.76 211.98 224.99 212.05 222.85 217.16 221.33 217.6 221.35 217.34 229.22 224.77 229.46 225.02 221.59 227.93 221.68 227.34 239.9 238.35 248.6 239.56 211.34 221.32 213.02 203.23 210.16 202.89 221.56 214.42 230.68 214.58 224.76"/><polygon class="cls-7" points="217.27 231.52 217.25 231.92 224.5 237.65 224.69 231.76 217.27 231.52"/><polygon class="cls-1" points="225.02 221.59 224.77 229.46 217.34 229.22 217.6 221.35 217.16 221.33 212.05 222.85 211.98 224.99 214.58 224.76 214.42 229.68 217.25 231.92 217.27 231.52 224.69 231.76 224.5 237.65 227.34 239.9 227.93 221.68 225.02 221.59"/></g></g></g></svg>