<svg xmlns="http://www.w3.org/2000/svg" viewBox="0 0 88.02 32.74"><defs><style>.cls-1{fill:#0078ff;}.cls-2{fill:#00dacc;}</style></defs><title>Asset 6</title><g id="Layer_2" data-name="Layer 2"><g id="Layer_1-2" data-name="Layer 1"><polygon class="cls-1" points="17.02 10.53 7.24 10.53 7.24 0 6.66 0 0 2.25 0 5.11 3.4 4.69 3.4 24.96 7.13 24.96 7.24 24.96 7.24 13.6 17.02 13.6 17.02 24.96 20.86 24.96 20.86 0 17.02 0 17.02 10.53"/><path class="cls-1" d="M33.91,7.84c-5.47,0-9,3.42-9,8.65,0,5.47,3.45,8.85,9,8.85s9-3.42,9-8.75S39.42,7.84,33.91,7.84ZM34,22.55c-3.31,0-5.3-2.27-5.3-6s2-5.89,5.23-5.89,5.23,2.27,5.23,6S37.15,22.55,34,22.55Z"/><path class="cls-1" d="M55.4,7.84a6.5,6.5,0,0,0-5.51,2.37l-.17-2H46.41V25h3.66V17.12a9.4,9.4,0,0,1,.7-4.36A3.94,3.94,0,0,1,54.5,10.7c2.68,0,3.66,1.5,3.66,5.58V25h3.7V16A11.74,11.74,0,0,0,61,10.77C60.07,8.85,58.12,7.84,55.4,7.84Z"/><path class="cls-1" d="M69.22.8A2.11,2.11,0,0,0,66.92,3a2.08,2.08,0,0,0,2.3,2.2A2.1,2.1,0,0,0,71.48,3,2.1,2.1,0,0,0,69.22.8Z"/><rect class="cls-1" x="67.37" y="8.23" width="3.7" height="16.73"/><path class="cls-1" d="M82.86,15a15.92,15.92,0,0,1-2.65-1,1.77,1.77,0,0,1-1-1.6c0-1.22.94-1.88,2.72-1.88a7.2,7.2,0,0,1,4.11,1.29l1.29-2.44a9.76,9.76,0,0,0-5.61-1.57c-3.76,0-5.86,1.71-5.86,4.78,0,2.44,1.43,4,4.53,5,2.89.91,2.89.91,3.49,1.26a1.56,1.56,0,0,1,.73,1.43c0,1.53-1.19,2.34-3.45,2.34a8.24,8.24,0,0,1-4.81-1.36l-1.22,2.65a12,12,0,0,0,6.24,1.43c4.36,0,6.62-1.74,6.62-5.12C88,17.5,86.8,16.28,82.86,15Z"/><rect class="cls-2" x="3.4" y="29.67" width="84.61" height="3.07"/></g></g></svg>