<svg xmlns="http://www.w3.org/2000/svg" viewBox="0 0 353.15 401.05"><defs><style>.cls-1{fill:#fff;}.cls-2{fill:#3393ff;}.cls-3{fill:none;stroke:#0078ff;stroke-miterlimit:10;stroke-width:5px;}.cls-4{fill:#0078ff;}.cls-5{fill:#00dacc;}</style></defs><title>Asset 144</title><g id="Layer_2" data-name="Layer 2"><g id="Elements"><path class="cls-1" d="M313.65,246.15c-.62-1.28-1.82-6,.41-22.35,1.54-11.26,5.91-22.71,6.27-35,.27-8.8-2.08-7.45-10.58-9.4-1.15-.26-15.92-12.65-16.21-17.26s-4.67-6.55-4.65-11.58c0-3.3,4.67-3.9,10.39,1.24s5.57,13.55,15.19,9.21,5.72-7.82.51-12.49-22.86-1.11-21.59-6.34c1-4.16,7.9-4.4,13.69-4.73a49.91,49.91,0,0,1,14,1.81c2.81.77,5.19,1.74,6.38,2.81-.15-2.39-1.69-5.65-3.19-8.32s-3-4.74-3-4.74a26.82,26.82,0,0,1-5.21-4.44c-2.6-2.95-4.53-7-1.07-10.79,3.32-3.66,19.71,14.63,24.95,26.2,4.77,10.52,6.47,15.91,3.94,29.9-2.08,11.5,5.42,42.38,6.49,59.28,1.32,20.9-3,60.52-14,66.29-16.32,8.61-46.18,4.85-68.29-8.09,0,0,25.86-11.48,37.34-50.86l.8-.63C308.63,238.86,311.09,242.26,313.65,246.15Zm0,0a1.16,1.16,0,0,0,.26.39C313.85,246.45,313.76,246.32,313.67,246.19Z"/><path class="cls-2" d="M74.9,261.18a73.2,73.2,0,0,1-7.65,13.72l-.27-.19c-47.82-4-60.37-27.1-60.37-27.1a174.47,174.47,0,0,1,8.93-26.8c5.69-43.59,24.32-68.94,73.34-66.59,9.58.47,28.32,2,36.28-16.44l1.9-1.93c19.39,13,49.6,11.91,65,1.68l2.11.25c10.38,17.29,21.37,15.79,21.37,15.79,55.75,4.51,65.28,28.27,70.27,63.46,0,0,8.57,3.81,20.45,18.87l-.8.63c-11.48,39.38-37.34,50.86-37.34,50.86-12.38-7.25-22.32-17.37-26.1-29.81h-.68c-.42,25.55-24.42,133.87-24.42,133.87-31.79,4-83.63,2.2-85.1-.58a6,6,0,0,0,1.74-1.08c2.56-2.42-.15-6.55-.15-6.55,3.83-.2,7.16-3.94,7-6.5s-6-3.84-4.12-4,4.2-5.27,3.68-6.24c-3.54-6.66-25.2-10.77-37.14-17.86,0,0,0,0,0,0-1.45-2.83-2.85-5.81-4.21-8.9C84,306.46,74.9,261.18,74.9,261.18Z"/><path class="cls-1" d="M203.14,33.81c8.77,18.66-.6,47-.6,47s15.6,38.44-9.72,56.25l-.73.5c-15.43,10.23-45.64,11.29-65-1.68-9.83-6.58-16.88-16.76-17.83-31.17C106.66,65.85,100,33.62,126.12,14,145.93-.84,183.65-7.66,203.14,33.81Z"/><path class="cls-1" d="M133.44,383.23s2.71,4.13.15,6.55a6,6,0,0,1-1.74,1.08,21.15,21.15,0,0,1-6.6,1.37c-.74.06-1.2.07-1.2.07s3.33,6.24-2.77,6.25c-13.92,0-37.37-12.14-48.66-35.17-28.08-13.85-71-59.26-70.1-88.24a134,134,0,0,1,4.09-27.53S19.16,270.72,67,274.71l.27.19a44.2,44.2,0,0,1-12.28,12c7.7,19.37,15.36,35.45,26,51.71,0,0,9.08-4.84,17.63,1.2,0,3.45,4,8.57,4.26,8.88,0,0,0,0,0,0,11.94,7.09,33.6,11.2,37.14,17.86.52,1-1.81,6.11-3.68,6.24s4,1.42,4.12,4S137.27,383,133.44,383.23Z"/><path class="cls-3" d="M131.85,390.86c1.47,2.78,53.31,4.61,85.1.58,0,0,24-108.32,24.42-133.87a25.09,25.09,0,0,0-.1-3"/><path class="cls-3" d="M313.65,246.15c-2.56-3.89-5-7.29-7.36-10.25C294.41,220.84,285.84,217,285.84,217c-5-35.19-14.52-58.95-70.27-63.46,0,0-11,1.5-21.37-15.79"/><path class="cls-3" d="M313.93,246.58c-.08-.13-.17-.26-.26-.39"/><path class="cls-3" d="M313.94,246.59h0a1.16,1.16,0,0,1-.26-.39s0,0,0,0c-.62-1.28-1.82-6,.41-22.35,1.54-11.26,5.91-22.71,6.27-35,.27-8.8-2.08-7.45-10.58-9.4-1.15-.26-15.92-12.65-16.21-17.26s-4.67-6.55-4.65-11.58c0-3.3,4.67-3.9,10.39,1.24s5.57,13.55,15.19,9.21,5.72-7.82.51-12.49-22.86-1.11-21.59-6.34c1-4.16,7.9-4.4,13.69-4.73a49.91,49.91,0,0,1,14,1.81c2.81.77,5.19,1.74,6.38,2.81-.15-2.39-1.69-5.65-3.19-8.32s-3-4.74-3-4.74a26.82,26.82,0,0,1-5.21-4.44c-2.6-2.95-4.53-7-1.07-10.79,3.32-3.66,19.71,14.63,24.95,26.2,4.77,10.52,6.47,15.91,3.94,29.9-2.08,11.5,5.42,42.38,6.49,59.28,1.32,20.9-3,60.52-14,66.29-16.32,8.61-46.18,4.85-68.29-8.09-12.38-7.25-22.32-17.37-26.1-29.81"/><path class="cls-3" d="M314.23,124.72a2.07,2.07,0,0,0-.3-.1c-1-.32-4.24-1-3.94,3.65.34,5.49,9.94,3.56,13.74,10.87"/><path class="cls-3" d="M74.9,261.18S84,306.46,98.68,339.74c1.36,3.09,2.76,6.07,4.21,8.9"/><path class="cls-3" d="M6.61,247.61S19.16,270.72,67,274.71"/><path class="cls-3" d="M268.15,287.39s25.86-11.48,37.34-50.86"/><path class="cls-3" d="M80,227s3,11.76-2.3,27q-1.32,3.79-2.78,7.14a73.2,73.2,0,0,1-7.65,13.72,44.2,44.2,0,0,1-12.28,12c7.7,19.37,15.36,35.45,26,51.71,0,0,9.08-4.84,17.63,1.2,0,3.45,4,8.57,4.26,8.88,0,0,0,0,0,0,11.94,7.09,33.6,11.2,37.14,17.86.52,1-1.81,6.11-3.68,6.24s4,1.42,4.12,4-3.21,6.3-7,6.5c0,0,2.71,4.13.15,6.55a6,6,0,0,1-1.74,1.08,21.15,21.15,0,0,1-6.6,1.37c-.74.06-1.2.07-1.2.07s3.33,6.24-2.77,6.25c-13.92,0-37.37-12.14-48.66-35.17-28.08-13.85-71-59.26-70.1-88.24a134,134,0,0,1,4.09-27.53,174.47,174.47,0,0,1,8.93-26.8c5.69-43.59,24.32-68.94,73.34-66.59,9.58.47,28.32,2,36.28-16.44"/><path class="cls-3" d="M112.64,363.08c8.19,3.7,14.8,9.32,23.72,9.68"/><path class="cls-3" d="M106.08,371.24c9.44,4.48,17.16,10.44,27.36,12"/><path class="cls-3" d="M100.49,380.54c8.5,4.3,15.48,10.5,24.76,11.69l.45.06"/><path class="cls-3" d="M127.06,135.85c-9.83-6.58-16.88-16.76-17.83-31.17C106.66,65.85,100,33.62,126.12,14c19.81-14.85,57.53-21.67,77,19.8,8.77,18.66-.6,47-.6,47s15.6,38.44-9.72,56.25l-.73.5C176.66,147.76,146.45,148.82,127.06,135.85Z"/><path class="cls-3" d="M184.63,104.7s-20.69,19.43-47.3,0"/><path class="cls-3" d="M194.12,52.66s-13.59,7.32-28-3.43"/><path class="cls-3" d="M155.57,49.9s-21.62,8.56-33.09-.07"/><path class="cls-3" d="M160.38,65.82s2.07,16.57,8.74,22.27-5.19,10.61-13.39,3.43"/><path class="cls-3" d="M188.54,65.2s-9.2,7.7-16.7-1.4"/><path class="cls-3" d="M148.29,64.24S138,72.71,131.65,62.79"/><polygon class="cls-4" points="203.29 261.83 185.39 254.87 187.03 215.28 205.1 218.3 223.35 216.78 221.71 256.38 203.29 261.83"/><polygon class="cls-1" points="208.4 234.78 200.97 234.47 201.3 226.6 200.86 226.58 195.74 228.05 195.65 230.19 198.25 229.98 197.62 245.14 200.45 245.26 200.53 245.26 200.88 236.76 208.3 237.07 207.95 245.57 210.86 245.69 211.63 227.02 208.72 226.9 208.4 234.78"/><rect class="cls-5" x="197.42" y="248.94" width="13.25" height="2.3" transform="translate(10.53 -8.24) rotate(2.37)"/></g></g></svg>