<svg xmlns="http://www.w3.org/2000/svg" viewBox="0 0 211.47 160.18"><defs><style>.cls-1{fill:#66e9e0;}</style></defs><title>Asset 140</title><g id="Layer_2" data-name="Layer 2"><g id="Elements"><path class="cls-1" d="M127.75,2.1c58.57-12.67,78.54,35.46,81.77,50.38,8.77,40.53-13.1,70.91-43.83,77.56-24.28,5.25-46.16-5.4-51.56-30.34-3.76-17.37,4.69-34.35,11.18-42.05,1.62-2.22,2.48-1.47,4,.29,10.1,11.1,18.72,11.1,26.52,9.42,12.25-2.65,20.41-17.71,16.75-34.63-3.52-16.26-16.16-27.28-44.67-21.11-27.84,6-54.33,23.65-72.4,59.73A69.4,69.4,0,0,1,78.7,61c20.71-4.48,33,2.65,35.2,12.9.53,2.45-.17,3.53-2.81,3.17-2-.51-8-.14-14.42,1.25C75.52,82.88,63,104.93,61.76,120.59c17.32-12.61,30.86-7.14,33.84-5.22,1.85,1,3.89,2.89,4.37,5.12.53,2.45,1.15,2.08-1.35,2.39-3.95-1-8.47-1.43-15.37.06-14.92,3.23-22.86,12.87-23.35,21.37-.26,3.09-1.63,4.32-3,4.61-2,.43-10.34-3.59-13.44-5-1.58-.82-1.93-.28-1.54,1.5.82,3.79.17,5.09-.72,5.28-1.34.29-3.76-.12-6.59-1.37-3.77-1.28-5.54-3-5.93-4.78C17,90.63,33.11,37.73,53.35,20.3c.75-.86,1.7-2.93-.88-1.91C22.08,29.86.88,68.72,12.35,121.72c4.58,21.16,12.44,29.48,14.6,33,2.75,4.07,1.11,5.12,0,5.36-1.78.39-7.51-.24-9.63-1.41-4.13-4-10.51-17.31-14.6-36.24C-.57,107.27-4.28,72.87,14,43c19.91-33,47.45-35,51.9-35.94,2.87.31,5.94,2.68,8.45,5.63C42,31.38,35.75,69.33,36,86.54,60.39,30.2,103.47,7.36,127.75,2.1Zm35.9,77.56c-14.7,3.18-26.62.86-35.09-9.19a12.34,12.34,0,0,0-3.13,11.4C127.11,89.67,138,98,155.61,94.22c29.84-6.46,34.87-39.25,32.32-47.79-1.09-4,1.47-2.88,2.37.19,10.31,25-3.93,57.27-31.1,63.15-11.8,2.55-26.43,1.76-36.15-14.09-1.1-1.86-2.32,0-1.44,1.94C126,121.37,146.85,126,163.78,122.3c23.83-5.16,45-31.19,37.2-67.27-2.12-9.8-7.76-21.87-18.75-27.41-2.84-1.25-3.95-1-2.54,3.35C184.12,46.09,183.47,75.37,163.64,79.66ZM46,133.08c12-42.47,29.2-59,55.14-63,2.23-.48,2.75-1.29.85-2.52-2.66-1.52-11.78-1.65-22.25.62-35,7.57-43.87,40.73-39.57,67.08Z"/></g></g></svg>