<svg xmlns="http://www.w3.org/2000/svg" viewBox="0 0 304.32 81.75"><defs><style>.cls-1{fill:#171314;}.cls-2{fill:#443b3e;}.cls-3{fill:#fc4c00;}</style></defs><title>Asset 80</title><g id="Layer_2" data-name="Layer 2"><g id="Elements"><path class="cls-1" d="M36.4,9.58H23.89V53a1.43,1.43,0,0,1-1.43,1.43H15.38A1.43,1.43,0,0,1,13.95,53V9.58H1.43A1.32,1.32,0,0,1,0,8.3V2.65A1.37,1.37,0,0,1,1.43,1.29h35a1.37,1.37,0,0,1,1.43,1.36V8.3A1.32,1.32,0,0,1,36.4,9.58Z"/><path class="cls-1" d="M71.95,54.43H65.37a1.5,1.5,0,0,1-1.43-1.5V29.39c0-6.22-1.07-7.8-5.86-7.8A18.59,18.59,0,0,0,49.78,24V52.93a1.5,1.5,0,0,1-1.43,1.5H41.77a1.5,1.5,0,0,1-1.43-1.5V1.43A1.43,1.43,0,0,1,41.77,0h6.58a1.43,1.43,0,0,1,1.43,1.43V16.24c2.72-1.65,5.72-2.65,10.8-2.65,9.87,0,12.8,7,12.8,15.81V52.93A1.5,1.5,0,0,1,71.95,54.43Z"/><path class="cls-1" d="M107.21,54.43h-6.08A1.43,1.43,0,0,1,99.7,53V51.85A19.38,19.38,0,0,1,89.61,55c-5.94,0-12.37-2.29-12.37-11.94v-.29c0-8.15,5-12.37,17.45-12.37H99.2V27.25c0-4.65-2.07-5.79-6.29-5.79A112.85,112.85,0,0,0,81.25,22h-.36c-.72,0-1.29-.21-1.29-1.22V16.24c0-.79.43-1.29,1.36-1.5A61.65,61.65,0,0,1,92.9,13.59c10.16,0,15.73,4.51,15.73,13.66V53A1.43,1.43,0,0,1,107.21,54.43Zm-8-17.74H94.69c-6.51,0-7.94,2.07-7.94,6.08v.29c0,3.5,1.57,4.43,5.15,4.43a15.66,15.66,0,0,0,7.3-2Z"/><path class="cls-1" d="M122.44,54.43h-6.65a1.5,1.5,0,0,1-1.43-1.5V1.43A1.43,1.43,0,0,1,115.79,0h6.65a1.37,1.37,0,0,1,1.36,1.43v51.5A1.44,1.44,0,0,1,122.44,54.43Z"/><path class="cls-1" d="M161.06,37.55H137.74v.22c0,4.15,1.72,9.08,8.58,9.08,5.22,0,10.16-.43,13.16-.71h.21c.72,0,1.29.36,1.29,1.07v4.72c0,1.14-.21,1.64-1.5,1.86A63.62,63.62,0,0,1,145.61,55c-7.15,0-17.31-3.86-17.31-18V31.75c0-11.16,6.22-18.17,17.17-18.17s17,7.51,17,18.17v4C162.49,36.9,162.06,37.55,161.06,37.55Zm-8.08-7c0-5.58-3.08-8.8-7.51-8.8s-7.65,3.15-7.65,8.8v.29H153Z"/><path class="cls-1" d="M179.72,55a59.24,59.24,0,0,1-12.8-1.43,1.62,1.62,0,0,1-1.36-1.64V47.63a1.19,1.19,0,0,1,1.22-1.14h.29c3.43.43,9.87.79,12,.79,4.43,0,5.08-1.5,5.08-3.43,0-1.36-.86-2.22-3.15-3.65l-9.8-6a11.79,11.79,0,0,1-6-9.87c0-7.15,4.51-10.73,13.59-10.73A53,53,0,0,1,191.53,15a1.56,1.56,0,0,1,1.29,1.65v4.15c0,.86-.43,1.36-1.14,1.36h-.29a105.58,105.58,0,0,0-11.8-.86c-3.43,0-4.93.79-4.93,3,0,1.14,1.07,1.86,2.86,2.93L186.88,33c6,3.65,6.87,7.22,6.87,10.87C193.74,50.06,189.09,55,179.72,55Z"/><path class="cls-2" d="M223.71,54.43H207.4c-5.44,0-8.65-2-8.65-8V2.65A1.29,1.29,0,0,1,200,1.29h.71a1.29,1.29,0,0,1,1.22,1.36V46.42c0,4.43,2.07,5.08,5.51,5.08h16.31c.79,0,1.36.43,1.36,1.14v.57A1.24,1.24,0,0,1,223.71,54.43Z"/><path class="cls-2" d="M266,54.64h-.86a1.22,1.22,0,0,1-1.14-.93l-6-19.38h-20.6L231.5,53.71a1.4,1.4,0,0,1-1.14.93h-.93a1,1,0,0,1-1.07-1.14,2,2,0,0,1,.07-.64L243.09,4.43A4.63,4.63,0,0,1,247.74.93a4.54,4.54,0,0,1,4.58,3.43L267,52.85a2.55,2.55,0,0,1,.14.72A1,1,0,0,1,266,54.64ZM249.38,5.22a1.7,1.7,0,0,0-1.65-1.43,1.53,1.53,0,0,0-1.64,1.36l-7.87,26h19Z"/><path class="cls-2" d="M283.71,54.93A100.11,100.11,0,0,1,273,54.36c-.93-.07-1.36-.5-1.36-1.36V2.72A1.46,1.46,0,0,1,273,1.36c2.93-.21,7.08-.43,10.73-.43,9.8,0,19.67,2.22,19.67,12.95v.79c0,5.94-3.22,10-8.51,11.87,5.51,1.64,8.8,5.79,8.8,12.16v1.22C303.67,52.57,292.72,54.93,283.71,54.93Zm16.52-41.05c0-8.72-8.15-10.16-16.52-10.16-3.15,0-6.51.21-8.94.29V25h12.95c10,0,12.52-4.93,12.52-10.3Zm.29,24.82c0-5.51-2.72-10.66-12.8-10.66H274.77v23.6c3.08.21,5.44.43,8.94.43,8.58,0,16.81-1.79,16.81-12.16Z"/><path class="cls-3" d="M118.92,77.17h-2.17a.49.49,0,0,1-.51-.46v-.37a7.51,7.51,0,0,1-3.6,1c-2.12,0-4.42-.73-4.42-3.82v-.09c0-2.61,1.79-4,6.24-4h1.61v-1c0-1.49-.74-1.85-2.25-1.85s-3.32.09-4.17.18h-.13c-.26,0-.46-.07-.46-.39V64.95c0-.25.15-.41.49-.48a24.53,24.53,0,0,1,4.27-.37c3.63,0,5.62,1.44,5.62,4.37v8.24A.49.49,0,0,1,118.92,77.17Zm-2.86-5.68h-1.61c-2.33,0-2.84.66-2.84,1.95v.09c0,1.12.56,1.42,1.84,1.42a6.09,6.09,0,0,0,2.61-.64Z"/><path class="cls-3" d="M137.34,77a21.46,21.46,0,0,1-4,.37c-3.07,0-7.23-1.35-7.23-7V67c0-5.75,4.17-7,7.23-7a21.52,21.52,0,0,1,4,.37c.33.09.56.21.56.53v1.53c0,.27-.13.48-.51.48h-.05c-.89-.07-2.63-.18-4-.18-2.15,0-3.71,1-3.71,4.28v3.37c0,3.18,1.56,4.28,3.71,4.28,1.35,0,3.09-.11,4-.18h.05c.38,0,.51.21.51.48v1.53C137.9,76.78,137.67,76.9,137.34,77Z"/><path class="cls-3" d="M145,77.36c-4,0-6.11-2.43-6.11-5.7V69.8c0-3.27,2.1-5.7,6.11-5.7s6.11,2.43,6.11,5.7v1.85C151.09,74.93,149,77.36,145,77.36Zm2.73-7.55c0-1.88-.95-3.09-2.73-3.09s-2.74,1.21-2.74,3.09v1.85c0,1.88.95,3.09,2.74,3.09s2.73-1.21,2.73-3.09Z"/><path class="cls-3" d="M170.41,77.17h-2.35a.51.51,0,0,1-.51-.48V68.91c0-1.76-.41-2.22-1.84-2.22a6.11,6.11,0,0,0-2.38.57,11.27,11.27,0,0,1,.1,1.65v7.78a.51.51,0,0,1-.51.48h-2.35a.51.51,0,0,1-.51-.48V68.91c0-1.76-.33-2.22-1.76-2.22a6.11,6.11,0,0,0-2.35.76v9.25a.51.51,0,0,1-.51.48h-2.35a.51.51,0,0,1-.51-.48v-12a.49.49,0,0,1,.51-.46h2.22a.49.49,0,0,1,.51.46v.48a6.89,6.89,0,0,1,3.66-1.1,3.84,3.84,0,0,1,3,1,8.7,8.7,0,0,1,4.22-1c3.48,0,4.24,2.13,4.24,4.81v7.78A.51.51,0,0,1,170.41,77.17Z"/><path class="cls-3" d="M178.67,77.36a21.57,21.57,0,0,1-2.45-.16v4.05a.49.49,0,0,1-.51.46h-2.35a.49.49,0,0,1-.51-.46V65.32c0-.34.1-.48.69-.62a24.18,24.18,0,0,1,5.14-.6c4.12,0,6.11,2.17,6.11,5.75v1.76C184.77,75.18,182.78,77.36,178.67,77.36Zm2.73-7.51c0-1.88-.54-3.27-2.73-3.27a16.6,16.6,0,0,0-2.45.16v8a23.81,23.81,0,0,0,2.45.16c2.2,0,2.73-1.4,2.73-3.27Z"/><path class="cls-3" d="M196.35,77.17h-2.17a.49.49,0,0,1-.51-.46v-.37a7.51,7.51,0,0,1-3.6,1c-2.12,0-4.42-.73-4.42-3.82v-.09c0-2.61,1.79-4,6.24-4h1.61v-1c0-1.49-.74-1.85-2.25-1.85s-3.32.09-4.17.18h-.13c-.26,0-.46-.07-.46-.39V64.95c0-.25.15-.41.49-.48a24.54,24.54,0,0,1,4.27-.37c3.63,0,5.62,1.44,5.62,4.37v8.24A.49.49,0,0,1,196.35,77.17Zm-2.86-5.68h-1.61c-2.33,0-2.84.66-2.84,1.95v.09c0,1.12.56,1.42,1.84,1.42a6.09,6.09,0,0,0,2.61-.64Z"/><path class="cls-3" d="M210.07,77.17h-2.35a.51.51,0,0,1-.51-.48V69.23c0-2-.2-2.56-2.17-2.56a7.05,7.05,0,0,0-2.89.82v9.2a.51.51,0,0,1-.51.48h-2.35a.51.51,0,0,1-.51-.48v-12a.49.49,0,0,1,.51-.46h2.22a.49.49,0,0,1,.51.46v.48a7.18,7.18,0,0,1,4.14-1.1c3.68,0,4.42,2.22,4.42,5.13v7.46A.51.51,0,0,1,210.07,77.17Z"/><path class="cls-3" d="M224.49,64.79l-4.27,13.37c-.79,2.5-1.74,3.59-5.21,3.59a13.24,13.24,0,0,1-2.71-.3c-.28-.07-.54-.16-.54-.39V79.6c0-.25.23-.41.51-.41h.05c.72,0,2.17.14,2.89.14a1.74,1.74,0,0,0,2-1.47l.2-.69h-.38c-.74,0-1.66-.16-2.22-1.9l-3.35-10.48a.41.41,0,0,1,0-.16c0-.23.15-.37.49-.37h2.58a.55.55,0,0,1,.49.41L217.59,74c.1.39.2.5.36.5h.23l2.76-9.84a.53.53,0,0,1,.51-.39h2.61a.43.43,0,0,1,.46.39A.26.26,0,0,1,224.49,64.79Z"/><path class="cls-3" d="M236.29,77.36a29.79,29.79,0,0,1-4.42-.25c-.84-.14-1.23-.39-1.23-1.24V61.45c0-.82.33-1.12,1.15-1.24a35.52,35.52,0,0,1,4.27-.23c4.63,0,7.87,1.19,7.87,4.65v.46a3.57,3.57,0,0,1-2.35,3.46A3.53,3.53,0,0,1,244.06,72v.39C244.06,76.05,241,77.36,236.29,77.36Zm4.19-12.54c0-1.6-1.15-2.2-4.42-2.2-.61,0-1.33,0-1.87,0v4.65h3.25c2.38,0,3-1,3-2.17Zm.1,7.26c0-1.26-.74-2.43-3.14-2.43H234.2v5c.61,0,1.56,0,2.1,0,3.27,0,4.29-.76,4.29-2.36Z"/><path class="cls-3" d="M256.89,77.17h-2.35a.49.49,0,0,1-.51-.46v-.53a7.13,7.13,0,0,1-4,1.14,4.67,4.67,0,0,1-3.14-1c-.95-.85-1.28-2.27-1.28-4.17V64.74a.51.51,0,0,1,.51-.48h2.35a.51.51,0,0,1,.51.48v7.46c0,1.14.1,1.81.59,2.2a2.39,2.39,0,0,0,1.58.41A7.78,7.78,0,0,0,254,73.9V64.74a.51.51,0,0,1,.51-.48h2.35a.51.51,0,0,1,.51.48v12A.49.49,0,0,1,256.89,77.17Z"/><path class="cls-3" d="M262.34,62.55h-2.48a.51.51,0,0,1-.54-.46v-2a.51.51,0,0,1,.54-.46h2.48a.49.49,0,0,1,.51.46v2A.49.49,0,0,1,262.34,62.55Zm-.08,14.63h-2.35a.51.51,0,0,1-.51-.48v-12a.49.49,0,0,1,.51-.46h2.35a.49.49,0,0,1,.51.46v12A.51.51,0,0,1,262.26,77.17Z"/><path class="cls-3" d="M267.78,77.17H265.4a.51.51,0,0,1-.51-.48V60.21a.49.49,0,0,1,.51-.46h2.38a.47.47,0,0,1,.49.46V76.69A.48.48,0,0,1,267.78,77.17Z"/><path class="cls-3" d="M281,76.76a24.18,24.18,0,0,1-5.14.6c-4.11,0-6.11-2.17-6.11-5.75V69.85c0-3.57,2-5.75,6.11-5.75a21.57,21.57,0,0,1,2.45.16V60.21a.49.49,0,0,1,.51-.46h2.35a.49.49,0,0,1,.51.46V76.14C281.73,76.49,281.63,76.62,281,76.76Zm-2.68-10a23.81,23.81,0,0,0-2.45-.16c-2.2,0-2.73,1.4-2.73,3.27v1.76c0,1.88.54,3.27,2.73,3.27a16.6,16.6,0,0,0,2.45-.16Z"/><path class="cls-3" d="M294.92,71.77h-8.33v.07c0,1.33.61,2.91,3.07,2.91,1.87,0,3.63-.14,4.7-.23h.08c.26,0,.46.11.46.34v1.51c0,.37-.08.53-.54.6a25.33,25.33,0,0,1-5,.39c-2.56,0-6.19-1.24-6.19-5.75V69.92c0-3.57,2.22-5.81,6.13-5.81s6.08,2.4,6.08,5.81V71.2C295.43,71.57,295.28,71.77,294.92,71.77ZM292,69.53a2.56,2.56,0,0,0-2.68-2.82,2.59,2.59,0,0,0-2.73,2.82v.09H292Z"/><path class="cls-3" d="M303.81,66.67a7.9,7.9,0,0,0-3.53.82v9.2a.51.51,0,0,1-.51.48h-2.35a.51.51,0,0,1-.51-.48v-12a.49.49,0,0,1,.51-.46h2.22a.49.49,0,0,1,.51.46v.48a6.42,6.42,0,0,1,3.66-1.1.49.49,0,0,1,.51.46v1.65A.49.49,0,0,1,303.81,66.67Z"/></g></g></svg>