<svg xmlns="http://www.w3.org/2000/svg" viewBox="0 0 15 15"><defs><style>.cls-1{fill:#036;}</style></defs><title>Asset 28</title><g id="Layer_2" data-name="Layer 2"><g id="Elements"><path class="cls-1" d="M10.79,6.34a3.27,3.27,0,0,1,0,2.33l3,3a7.47,7.47,0,0,0,0-8.26Z"/><path class="cls-1" d="M4.21,8.66a3.27,3.27,0,0,1,0-2.33l-3-3a7.47,7.47,0,0,0,0,8.26Z"/><path class="cls-1" d="M8.66,10.79a3.27,3.27,0,0,1-2.33,0l-3,3a7.47,7.47,0,0,0,8.26,0Z"/><path class="cls-1" d="M6.34,4.21a3.27,3.27,0,0,1,2.33,0l3-3a7.47,7.47,0,0,0-8.26,0Z"/></g></g></svg>