<svg xmlns="http://www.w3.org/2000/svg" viewBox="0 0 23 28"><defs><style>.cls-1{fill:none;stroke:#0078ff;stroke-miterlimit:10;stroke-width:3px;}</style></defs><title>Asset 99</title><g id="Layer_2" data-name="Layer 2"><g id="Elements"><path class="cls-1" d="M7.63,12.53,11.5,16.4l7.87-7.87a1.25,1.25,0,0,1,2.13.88v7.93a6.25,6.25,0,0,1-3.15,5.42l-6.23,3.56a1.25,1.25,0,0,1-1.24,0L4.65,22.77A6.25,6.25,0,0,1,1.5,17.35V4a1.25,1.25,0,0,1,.91-1.2A33,33,0,0,1,11.5,1.5a33,33,0,0,1,9.09,1.3,1.25,1.25,0,0,1,.86,1.55"/></g></g></svg>