<svg xmlns="http://www.w3.org/2000/svg" xmlns:xlink="http://www.w3.org/1999/xlink" viewBox="0 0 50 40"><defs><style>.cls-1{fill:#fff;}.cls-1,.cls-2,.cls-3,.cls-4{stroke:#0078ff;stroke-miterlimit:10;stroke-width:2px;}.cls-2{fill:url(#linear-gradient);}.cls-3{fill:none;}.cls-4{fill:#ccf8f5;}.cls-5{fill:#0078ff;}</style><linearGradient id="linear-gradient" x1="25" y1="39" x2="25" y2="30.71" gradientUnits="userSpaceOnUse"><stop offset="0" stop-color="#fff"/><stop offset="0.01" stop-color="#fbfefe"/><stop offset="0.18" stop-color="#cef8f5"/><stop offset="0.35" stop-color="#a8f3ed"/><stop offset="0.52" stop-color="#8beee8"/><stop offset="0.68" stop-color="#77ebe3"/><stop offset="0.84" stop-color="#6aeae1"/><stop offset="1" stop-color="#66e9e0"/></linearGradient></defs><title>Asset 116</title><g id="Layer_2" data-name="Layer 2"><g id="Elements"><path class="cls-1" d="M48,39H1.71A.71.71,0,0,1,1,38.29V6.71A.71.71,0,0,1,1.71,6H48.29s.71.32.71.71V38.28s-.32.72-.71.72"/><path class="cls-2" d="M49,30.71v7.57s-.32.71-.71.71H1.71A.71.71,0,0,1,1,38.29V30.71"/><polyline class="cls-3" points="1 28.5 4 31 46 31 49 28.5"/><polygon class="cls-1" points="22 23 22 33.39 25 35.93 28 33.36 28 23 22 23"/><circle class="cls-4" cx="25" cy="20" r="9.5"/><path class="cls-5" d="M25,19c-.36,0-1.81-.19-1.81-1S23.33,16.5,25,16.5a2,2,0,0,1,1.45.45,1.46,1.46,0,0,1,.36,1l2,.1A3.28,3.28,0,0,0,26,14.6V13.5H24v1.09A3.14,3.14,0,0,0,21.19,18c0,2,2,3,3.81,3,0,0,1.81,0,1.81,1,0,.74-.14,1.45-1.81,1.45s-1.81-.74-1.81-1h-2A3.07,3.07,0,0,0,24,25.41V26.5h2V25.41A3.14,3.14,0,0,0,28.81,22C28.81,20,26.84,19,25,19Z"/><polygon class="cls-3" points="30.97 1 19.03 1 17 3.03 17 6 33 6 33 3.03 30.97 1"/></g></g></svg>