<svg xmlns="http://www.w3.org/2000/svg" viewBox="0 0 343.76 347.75"><defs><style>.cls-1{fill:#0078ff;}.cls-2{fill:#fff;}.cls-3{fill:#3393ff;}.cls-4{fill:none;stroke:#0078ff;stroke-miterlimit:10;stroke-width:5px;}.cls-5{fill:#00dacc;}</style></defs><title>Asset 69</title><g id="Layer_2" data-name="Layer 2"><g id="Elements"><path class="cls-1" d="M151.3,56.25a2,2,0,1,0,2,2A2,2,0,0,0,151.3,56.25Z"/><path class="cls-1" d="M182.81,69.25a1.5,1.5,0,1,0,1.52,1.49A1.5,1.5,0,0,0,182.81,69.25Z"/><path class="cls-2" d="M188.27,135.62C208,119.8,201.17,86.4,201.17,86.4A100,100,0,0,0,210,62.47c1.57-7.19,2.2-15.05.36-22.13C198.86-4,164.83-3.34,141.84,11.85,116.9,28.34,110.67,50,106.27,83.14c-.42,3.1-.81,6.3-1.21,9.61-5.15,43.11,50.88,58.73,76.22,47.16A32.41,32.41,0,0,0,188.27,135.62ZM149.33,58.28a2,2,0,1,1,2,2A2,2,0,0,1,149.33,58.28Zm32,12.49a1.5,1.5,0,1,1,1.51,1.48A1.5,1.5,0,0,1,181.33,70.77Z"/><path class="cls-3" d="M81.36,264.52c-1.2,24.82-4.54,55.09-12.82,80.65l52,.08c4.86-19.38,7.26-55.45,7.26-55.45,30.45-13.67,37.49-31.42,37.49-31.42a80.84,80.84,0,0,0,28.41-21.07C199.08,251,209,261.64,220.8,269.26c31.07-25.53,33.29-67.59,33.29-67.59l1.11-.13A38.73,38.73,0,0,0,238.32,191c-7.24-44.18-44.49-54.16-50-55.41a32.41,32.41,0,0,1-7,4.29c-25.34,11.57-81.37-4.05-76.22-47.16.4-3.31.79-6.51,1.21-9.61h-.05S97.31,100,87.9,105.46C48.63,128.09-31.58,129.76,18.42,345.1h7.45c-7.22-32.37-9.93-59.45-10.52-80.55,28.77,12.29,65.56-.06,65.56-.06Z"/><path class="cls-2" d="M15.35,264.56c.59,21.1,3.3,48.18,10.52,80.55l42.67.06c8.28-25.56,11.62-55.83,12.82-80.65l-.45,0S44.12,276.85,15.35,264.56Z"/><path class="cls-2" d="M264,216.8a38.24,38.24,0,0,0-8.79-15.26l-1.11.13s-2.22,42.06-33.29,67.59c32.71,21.11,80,18.82,87.05-7.94,9-34.48,6.81-80.87,6.52-86.15a26.93,26.93,0,0,1-14.95-3.89c-6-4.94-9.21-10-10.52-15l-.7.19S273,188.41,264,216.8Z"/><path class="cls-2" d="M311.38,138.1a30.68,30.68,0,0,0-3.63-7c-.72-1-1.21-1.56-1.21-1.56,11.64-17.49,5.32-28.27,2.14-32.45-1.91-2.49-11.24-4.94-11.78,1.77s7.13,11.65,1.74,23.18c-3.9,8.34-13.2,21-9.74,34.16,1.31,5,4.49,10.1,10.52,15a26.93,26.93,0,0,0,14.95,3.89,31.68,31.68,0,0,0,9.22-1.59c6.81-2.22,10.49-5.18,12.58-8.71h0c-1.64-2.09-8.84-9.74-24.89-6.17l-.26-.1a28.63,28.63,0,0,0,2.07-8.73A28,28,0,0,0,311.38,138.1Z"/><path class="cls-2" d="M308,131l-.21.15a30.68,30.68,0,0,1,3.63,7c12.28-12,29.43.63,29.43.63l.2,0c.6-6.61.34-12.59-3.25-15.23C332.26,119.49,319.59,118,308,131Z"/><path class="cls-2" d="M311,158.59l.26.1c16-3.57,23.25,4.08,24.89,6.17,2.29-3.85,2.7-8.37,3.26-13.31-1-1-11.42-10.48-26.34-1.69A28.63,28.63,0,0,1,311,158.59Z"/><path class="cls-2" d="M311.38,138.1a28,28,0,0,1,1.71,11.76c14.92-8.79,25.3.68,26.34,1.69l.18-1.55c.44-3.62,1.05-7.53,1.4-11.25l-.2,0S323.66,126.12,311.38,138.1Z"/><path class="cls-4" d="M207.62,210.91s-2.39,12.82-13.95,26.4a80.84,80.84,0,0,1-28.41,21.07s-7,17.75-37.49,31.42c0,0-2.4,36.07-7.26,55.45l-52-.08-42.67-.06H18.42c-50-215.34,30.21-217,69.48-239.64,9.41-5.42,18.32-22.33,18.32-22.33"/><path class="cls-4" d="M193.36,236.52c.1.26.2.53.31.79C199.08,251,209,261.64,220.8,269.26c32.71,21.11,80,18.82,87.05-7.94,9-34.48,6.81-80.87,6.52-86.15l0-.5"/><path class="cls-4" d="M187.57,135.47s.24,0,.7.15c5.56,1.25,42.81,11.23,50,55.41a38.73,38.73,0,0,1,16.88,10.51A38.24,38.24,0,0,1,264,216.8"/><path class="cls-4" d="M288.2,156.43S273,188.41,264,216.8c-5.2,16.45-8.29,31.69-5.09,38.81"/><path class="cls-4" d="M210,62.47a100,100,0,0,1-8.87,23.93s6.79,33.4-12.9,49.22a32.41,32.41,0,0,1-7,4.29c-25.34,11.57-81.37-4.05-76.22-47.16.4-3.31.79-6.51,1.21-9.61,4.4-33.13,10.63-54.8,35.57-71.29,23-15.19,57-15.84,68.56,28.49C212.24,47.42,211.61,55.28,210,62.47Z"/><path class="cls-4" d="M175.84,112.68s-26.93,15.11-42.12-20.34"/><path class="cls-4" d="M215.44,61.87a24.17,24.17,0,0,1-5.4.6c-6.22.1-16.69-1.59-25.49-12.13"/><path class="cls-4" d="M169,46.08s-23.24,1.23-31.19-11.5"/><path class="cls-4" d="M167.07,65.27s-4,16.24.26,23.93-10.77,5.11-14.46-8.27"/><path class="cls-4" d="M184.33,70.74a1.5,1.5,0,1,0-3,0,1.5,1.5,0,0,0,3,0Z"/><path class="cls-4" d="M153.33,58.23a2,2,0,1,0-4,.05,2,2,0,0,0,4-.05Z"/><path class="cls-4" d="M336.17,164.87c-2.09,3.53-5.77,6.49-12.58,8.71a31.68,31.68,0,0,1-9.22,1.59,26.93,26.93,0,0,1-14.95-3.89c-6-4.94-9.21-10-10.52-15-3.46-13.15,5.84-25.82,9.74-34.16,5.39-11.53-2.27-16.46-1.74-23.18s9.87-4.26,11.78-1.77c3.18,4.18,9.5,15-2.14,32.45,0,0,.49.55,1.21,1.56a30.68,30.68,0,0,1,3.63,7,28,28,0,0,1,1.71,11.76,28.63,28.63,0,0,1-2.07,8.73c-.28.73-.61,1.47-1,2.22"/><path class="cls-4" d="M308,131c11.63-13,24.3-11.5,29.8-7.47,3.59,2.64,3.85,8.62,3.25,15.23-.35,3.72-1,7.63-1.4,11.25l-.18,1.55c-.56,4.94-1,9.46-3.26,13.31"/><path class="cls-4" d="M339.52,151.64l-.09-.09c-1-1-11.42-10.48-26.34-1.69"/><path class="cls-4" d="M340.81,138.73s-17.15-12.61-29.43-.63c-.22.22-.45.44-.67.68"/><path class="cls-4" d="M336.53,165.37s-.12-.19-.36-.5h0c-1.64-2.09-8.84-9.74-24.89-6.17"/><path class="cls-4" d="M97.92,211.26S95.7,223.55,82,237.54l-.56.57"/><path class="cls-4" d="M81.42,215.83s.52,8.45.56,21.71c0,7.63-.12,16.85-.62,27-1.2,24.82-4.54,55.09-12.82,80.65-.07.23-.15.45-.22.67"/><path class="cls-4" d="M18.83,212.41s-4.44,18.39-3.48,52.15c.59,21.1,3.3,48.18,10.52,80.55.05.24.11.49.16.73"/><path class="cls-4" d="M254.09,201.67s-2.22,42.06-33.29,67.59"/><path class="cls-4" d="M80.91,264.5s-36.79,12.35-65.56.06l-.14-.06"/><polygon class="cls-1" points="159.93 239.31 143.93 228.68 154.01 190.36 171.01 197.18 189.17 199.6 179.09 237.93 159.93 239.31"/><polygon class="cls-2" points="170.71 213.98 163.53 212.09 165.53 204.47 165.11 204.36 159.79 204.7 159.25 206.77 161.82 207.13 157.96 221.8 160.7 222.52 160.78 222.54 162.94 214.31 170.12 216.2 167.96 224.43 170.78 225.16 175.53 207.1 172.71 206.36 170.71 213.98"/><rect class="cls-5" x="156.56" y="226.85" width="13.25" height="2.3" transform="translate(63.34 -34) rotate(14.73)"/></g></g></svg>