<svg xmlns="http://www.w3.org/2000/svg" viewBox="0 0 180 80"><defs><style>.cls-1{fill:#fff;}.cls-2{fill:#0032a0;}.cls-3{fill:#00acc8;}</style></defs><title>Asset 13</title><g id="Layer_2" data-name="Layer 2"><g id="Layer_1-2" data-name="Layer 1"><rect class="cls-1" width="180" height="80"/><path class="cls-2" d="M63.5,31.5l0,16.82c0,5.82-5.81,8.67-11.71,8.67-6.11,0-11.31-2.85-11.31-8.67V25.38c2.53,0,5.4.82,5.4,5.43L46,47c0,3.15,2.38,4.72,6,4.72,3.46,0,6.07-1.58,6.07-4.72V25.38c3.74,0,5.45,1.59,5.45,6.13m18.77-6.13c-6.77,0-11.41,3.9-11.41,11.92V56.6H76.3V37.12c0-4.13,2.22-6.61,6.43-6.61h1.61c4.76,0,5.54-2.47,5.54-5.13Zm23.31,0h12.06V56.6c-3.42,0-5.14-1-5.52-4.17,0,0-2.4,4.77-9.27,4.77-8.35,0-13.27-6.62-13-16.09.28-10.4,7.13-15.73,14.36-15.73Zm6.2,5h-6.28c-.33,0-.68,0-1,0-4.78,0-8.39,3.29-8.58,10.77-.22,7.79,3.22,11,8.06,11,5.38,0,7.85-4.1,7.85-8.42V30.38Zm-84.2,9-6.65-1.83C19.08,37,17.4,36.21,17.4,34s1.4-3.45,4.39-3.45h5.92c2.64,0,5.74-.87,5.74-5.13H22.31c-6.86,0-10.81,3.47-10.81,8.46,0,4.63,3,7.23,8.2,8.61L25.49,44c2.4.65,3.24,2.15,3.24,3.69,0,2.33-1.46,3.75-5.06,3.77l-11.13.09V56.6H23.84c6.89,0,10.82-3.69,10.82-8.55s-1.92-7.31-7.08-8.7"/><path class="cls-3" d="M139.43,62.83A62.75,62.75,0,0,1,129,65.48c-.07,0-.14.07-.14.14a.13.13,0,0,0,.06.13,4.4,4.4,0,0,0,2.39.89,11.57,11.57,0,0,0,4.33-.44,25.72,25.72,0,0,0,4.53-1.81,30.53,30.53,0,0,0,4.25-2.48,11.82,11.82,0,0,0,2.79-2.56c0-.11,0-.14-.06-.17a32.53,32.53,0,0,1-7.77,3.66m7.47-5.47c0-.12,0-.19-.07-.19-3.07,1.21-9.78,2.39-14,3-3.6.53-6.71.61-8.45.72l-.76,0c-.1,0-.17.09-.17.15a.11.11,0,0,0,.08.14,5.14,5.14,0,0,0,3.35,1.61c2.35.35,5.81-.23,10.17-1.49a47.79,47.79,0,0,0,9.82-4m-.47,5.36a21.11,21.11,0,0,1-7.77,4.38c-.08,0-.11.07-.11.13a.27.27,0,0,0,.06.16c.22.09,1.79.94,4.72-.53a7,7,0,0,0,3.28-4,.15.15,0,0,0-.07-.18.21.21,0,0,0-.11,0M131.59,24.79a6.76,6.76,0,0,0,3,1.82l.07,0c.39.08,20.8,5.54,26.17,7,2.35.65,4.24,1.17,5.1,1.42.11,0,.17,0,.17-.09a.09.09,0,0,0-.07-.1c-3.42-1.38-24.43-9.55-32.37-12.63L130.34,21a.2.2,0,0,0-.21,0,.16.16,0,0,0,0,.12A7.23,7.23,0,0,0,131,24a8.29,8.29,0,0,0,.62.78m.92-8.06A5.26,5.26,0,0,0,134,18c.28.14.5.33.79.46l1.88,1c1.07.53,16.82,8,19.13,9.1,2.71,1.36,5.43,2.67,6.65,3.26.1,0,.14,0,.12-.14-2.93-1.86-14.2-9-22.21-14l-5.81-3.51-1-.66-2-1.18a.33.33,0,0,0-.19,0,.13.13,0,0,0-.07.13,7.32,7.32,0,0,0,.39,2.88,6.53,6.53,0,0,0,.79,1.45m35.91,20.36-35.67-6.5a.24.24,0,0,0-.19.1s0,.12,0,.18a6.13,6.13,0,0,0,4,4.13,3.29,3.29,0,0,0,.72.11s27.95,2,31.08,2.18c.07,0,.12,0,.12-.08s0-.11-.08-.11M161.5,39c-2.9,0-6.5,0-9.85,0C147.16,39,140,39,140,39a.14.14,0,0,0-.12.06.09.09,0,0,0,0,.14,5.17,5.17,0,0,0,1,1.54,4.55,4.55,0,0,0,2.86,1.55h.36a1.45,1.45,0,0,0,.37,0c.13,0,21.39-2.9,22.57-3.08a.16.16,0,0,0,.08-.08c0-.08,0-.13-.08-.13-1,0-3,0-5.54,0m3.92,2.13c-1.32.38-6.32,1.65-10.75,2.74-3.85,1-8.13,2.15-8.13,2.15-.46.11-.28.29-.25.35a12.42,12.42,0,0,1,.64,1.07,1.83,1.83,0,0,0,2.47.71c.15,0,15.42-6.35,16.14-6.83.1,0,0-.1,0-.14s-.07,0-.13,0m-6.82,10.6c-2,1.69-5.11,4.33-8.31,7a2.07,2.07,0,0,0-.58,1.25,18.16,18.16,0,0,1-.64,2.08c-.1.25,0,.37.28.11,2.47-2.63,7.93-8.63,9.4-10.32,0-.11,0-.18-.07-.18Zm-3.43-2.48c-1.85,1.1-4.15,2.38-5.35,3.11-.13.09-.26.09-.18.45a7.46,7.46,0,0,1,.07.76c.14,1.76.87,1.58,1.93.78l.13-.11c3.69-3,10.52-8.7,12-10,0-.12,0-.17-.06-.17-1.47.87-5.29,3.2-8.54,5.14"/></g></g></svg>