<svg xmlns="http://www.w3.org/2000/svg" viewBox="0 0 224.8 102.28"><defs><style>.cls-1{fill:#fff;}</style></defs><title>Asset 78</title><g id="Layer_2" data-name="Layer 2"><g id="Elements"><rect y="41.41" width="52.89" height="60.87"/><rect x="57.3" y="41.41" width="52.9" height="60.87"/><rect x="114.6" y="41.41" width="52.9" height="60.87"/><rect x="171.91" y="41.41" width="52.9" height="60.87"/><polygon class="cls-1" points="155.08 54.61 155.57 55.1 155.57 60.53 155.08 61.02 144.55 61.02 144.55 82.67 155.08 82.67 155.57 83.16 155.57 88.58 155.08 89.07 127.02 89.07 126.53 88.58 126.53 83.16 127.02 82.67 137.55 82.67 137.55 61.02 127.02 61.02 126.53 60.53 126.53 55.1 127.02 54.61 155.08 54.61"/><polygon class="cls-1" points="212.38 54.61 212.88 55.1 212.88 60.53 212.38 61.02 201.85 61.02 201.85 82.67 212.38 82.67 212.88 83.16 212.88 88.58 212.38 89.07 184.32 89.07 183.83 88.58 183.83 83.16 184.32 82.67 194.85 82.67 194.85 61.02 184.32 61.02 183.83 60.53 183.83 55.1 184.32 54.61 212.38 54.61"/><polygon class="cls-1" points="97.74 54.61 91.73 54.61 91.24 55.11 91.24 71.57 76.26 60.65 76.26 55.11 75.77 54.61 69.75 54.61 69.26 55.11 69.26 88.59 69.75 89.08 75.77 89.08 76.26 88.59 76.26 69.31 91.24 80.22 91.24 88.59 91.73 89.08 97.74 89.08 98.23 88.59 98.23 55.11 97.74 54.61"/><rect class="cls-1" x="17.6" y="76.87" width="17.68" height="6.41"/><polygon class="cls-1" points="26.69 63.34 33.97 76.86 33.97 88.58 34.47 89.07 40.47 89.07 40.97 88.58 40.97 75.09 30.13 55.1 29.49 54.61 23.4 54.61 22.75 55.1 11.92 75.09 11.92 88.58 12.41 89.07 18.43 89.07 18.92 88.58 18.92 76.86 26.2 63.34 26.69 63.34"/><rect width="167.49" height="37"/><path class="cls-1" d="M23.87,15.76a7.1,7.1,0,0,1-.5,2.69A5.82,5.82,0,0,1,22,20.53a6.35,6.35,0,0,1-2.2,1.34,8.28,8.28,0,0,1-2.86.48H11.46v5.05A1.51,1.51,0,0,1,11,28.53,1.55,1.55,0,0,1,9.85,29h-1a1.53,1.53,0,0,1-1.58-1.57V9.6a1.51,1.51,0,0,1,.45-1.12A1.53,1.53,0,0,1,8.81,8h8.1a8.16,8.16,0,0,1,2.86.48A6.25,6.25,0,0,1,22,9.85a5.85,5.85,0,0,1,1.4,2.08,7.1,7.1,0,0,1,.5,2.69Zm-4.19-1.14a2.38,2.38,0,0,0-.77-1.86,3.1,3.1,0,0,0-2.16-.69h-5.3v6.25h5.3a3.11,3.11,0,0,0,2.16-.69,2.39,2.39,0,0,0,.77-1.86Z"/><path class="cls-1" d="M44,27a1.29,1.29,0,0,1,0,1.37,1.39,1.39,0,0,1-1.22.6H41.45a1.72,1.72,0,0,1-1-.37,2.54,2.54,0,0,1-.74-.83L36.8,22H31.54v5.45a1.51,1.51,0,0,1-.45,1.12,1.55,1.55,0,0,1-1.15.45h-1a1.53,1.53,0,0,1-1.57-1.57V9.6A1.53,1.53,0,0,1,28.89,8h8.23a8.12,8.12,0,0,1,2.8.46,6.45,6.45,0,0,1,2.17,1.29,5.61,5.61,0,0,1,1.4,2A6.79,6.79,0,0,1,44,14.43v1.11a6.69,6.69,0,0,1-.77,3.28A5.5,5.5,0,0,1,41,21ZM39.76,14.43a2.2,2.2,0,0,0-.71-1.74,2.92,2.92,0,0,0-2-.63H31.54v5.85h5.51a2.91,2.91,0,0,0,2-.63,2.22,2.22,0,0,0,.71-1.74Z"/><path class="cls-1" d="M57.07,7.72A8.06,8.06,0,0,1,61.68,9a7.21,7.21,0,0,1,2.76,3.81,8.92,8.92,0,0,1,.26,1,9.15,9.15,0,0,1,.17,1.14c0,.43.07.94.09,1.52s0,1.28,0,2.08,0,1.5,0,2.08-.05,1.1-.09,1.53a9.26,9.26,0,0,1-.17,1.14,9.16,9.16,0,0,1-.26,1A7.2,7.2,0,0,1,61.68,28a8,8,0,0,1-4.6,1.28h-1.7A8,8,0,0,1,50.77,28,7.06,7.06,0,0,1,48,24.2a9.79,9.79,0,0,1-.26-1,11,11,0,0,1-.18-1.14c-.05-.43-.09-.94-.11-1.53s0-1.28,0-2.08,0-1.49,0-2.08.06-1.09.11-1.52a10.8,10.8,0,0,1,.18-1.14,9.52,9.52,0,0,1,.26-1A7.07,7.07,0,0,1,50.77,9a8.07,8.07,0,0,1,4.6-1.27Zm-1.7,4A3.16,3.16,0,0,0,52.11,14a9.21,9.21,0,0,0-.28,1.5,26.39,26.39,0,0,0-.12,3,26.46,26.46,0,0,0,.12,3A9.07,9.07,0,0,0,52.11,23a3.16,3.16,0,0,0,3.26,2.28h1.7a3.46,3.46,0,0,0,2.11-.6A3.2,3.2,0,0,0,60.34,23a9.36,9.36,0,0,0,.28-1.49,26.63,26.63,0,0,0,.12-3,26.56,26.56,0,0,0-.12-3,9.51,9.51,0,0,0-.28-1.5,3.22,3.22,0,0,0-1.16-1.68,3.47,3.47,0,0,0-2.11-.6Z"/><path class="cls-1" d="M71.77,9.38a16.8,16.8,0,0,0,1.42,3.31,27.16,27.16,0,0,0,2.59,3.9,29.68,29.68,0,0,0,2.57-3.9,18.39,18.39,0,0,0,1.47-3.31,1.82,1.82,0,0,1,.64-1A1.73,1.73,0,0,1,81.53,8h1.35A1.16,1.16,0,0,1,84,8.57a1.81,1.81,0,0,1,.12,1.25,17.22,17.22,0,0,1-.83,2.3A29.51,29.51,0,0,1,82,14.81c-.53.94-1.15,1.91-1.83,2.89a31.37,31.37,0,0,1-2.26,2.87v6.84A1.53,1.53,0,0,1,76.29,29h-1a1.55,1.55,0,0,1-1.15-.45,1.5,1.5,0,0,1-.45-1.12V20.57a34.36,34.36,0,0,1-2.25-2.88q-1-1.46-1.82-2.88t-1.37-2.69a16.14,16.14,0,0,1-.85-2.3,1.75,1.75,0,0,1,.14-1.25A1.16,1.16,0,0,1,68.65,8H70a1.69,1.69,0,0,1,1,.35A2.05,2.05,0,0,1,71.77,9.38Z"/><path class="cls-1" d="M88.67,29a1.53,1.53,0,0,1-1.57-1.57V9.6A1.53,1.53,0,0,1,88.67,8h12.38a1.53,1.53,0,0,1,1.57,1.57v.9a1.53,1.53,0,0,1-1.57,1.57H91.32v4.31h8.35a1.52,1.52,0,0,1,1.12.45,1.56,1.56,0,0,1,.45,1.15v.86a1.53,1.53,0,0,1-1.57,1.57H91.32v4.53h9.73a1.53,1.53,0,0,1,1.57,1.57v.89A1.53,1.53,0,0,1,101.05,29Z"/><path class="cls-1" d="M113.34,29.28A7.86,7.86,0,0,1,108.82,28a7.1,7.1,0,0,1-2.68-3.85,7.53,7.53,0,0,1-.25-.94c-.06-.32-.12-.69-.17-1.12s-.08-.93-.11-1.51,0-1.27,0-2.09,0-1.52,0-2.1.06-1.08.11-1.51.11-.8.17-1.12a7.51,7.51,0,0,1,.25-.94A6.93,6.93,0,0,1,108.8,9a7.93,7.93,0,0,1,4.54-1.26H115a7.64,7.64,0,0,1,4,1,7.23,7.23,0,0,1,2.68,2.89,1.45,1.45,0,0,1,.14,1.2,1.66,1.66,0,0,1-.82,1l-.86.4,0,0a1.51,1.51,0,0,1-1.22.15,1.56,1.56,0,0,1-.94-.83,3.5,3.5,0,0,0-1.17-1.25,3.36,3.36,0,0,0-1.85-.48h-1.69A3,3,0,0,0,110.14,14a3.67,3.67,0,0,0-.14.6c0,.22-.06.49-.09.82s-.05.74-.06,1.23,0,1.1,0,1.82,0,1.33,0,1.82,0,.91.06,1.25a8.17,8.17,0,0,0,.11.83,4.71,4.71,0,0,0,.15.6,3.2,3.2,0,0,0,1.12,1.66,3.33,3.33,0,0,0,2,.58H115a3.14,3.14,0,0,0,1.82-.51,4.38,4.38,0,0,0,1.23-1.28,1.5,1.5,0,0,1,2.09-.64l.86.43a1.54,1.54,0,0,1,.82.93,1.44,1.44,0,0,1-.14,1.2A7.39,7.39,0,0,1,119,28.25a7.57,7.57,0,0,1-4,1Z"/><path class="cls-1" d="M130.24,28.53a1.52,1.52,0,0,1-.45-1.12V12.07h-5a1.52,1.52,0,0,1-1.57-1.57V9.6A1.52,1.52,0,0,1,124.8,8H139a1.53,1.53,0,0,1,1.57,1.57v.9A1.53,1.53,0,0,1,139,12.07h-5V27.41a1.52,1.52,0,0,1-.45,1.12,1.55,1.55,0,0,1-1.15.45h-1A1.52,1.52,0,0,1,130.24,28.53Z"/><path class="cls-1" d="M152.34,7.72A8.06,8.06,0,0,1,156.94,9a7.21,7.21,0,0,1,2.76,3.81,9.79,9.79,0,0,1,.27,1,10.77,10.77,0,0,1,.17,1.14c0,.43.07.94.09,1.52s0,1.28,0,2.08,0,1.5,0,2.08-.05,1.1-.09,1.53a10.93,10.93,0,0,1-.17,1.14c-.07.33-.16.65-.27,1a7.2,7.2,0,0,1-2.76,3.8,8,8,0,0,1-4.6,1.28h-1.69A8,8,0,0,1,146,28a7.07,7.07,0,0,1-2.73-3.8,8.4,8.4,0,0,1-.26-1c-.07-.33-.14-.71-.19-1.14s-.09-.94-.11-1.53,0-1.28,0-2.08,0-1.49,0-2.08.05-1.09.11-1.52.11-.81.19-1.14a8.19,8.19,0,0,1,.26-1A7.08,7.08,0,0,1,146,9a8,8,0,0,1,4.6-1.27Zm-1.69,4A3.16,3.16,0,0,0,147.38,14a9,9,0,0,0-.28,1.5,26.16,26.16,0,0,0-.12,3,26.23,26.23,0,0,0,.12,3,8.89,8.89,0,0,0,.28,1.49,3.16,3.16,0,0,0,3.26,2.28h1.69a3.46,3.46,0,0,0,2.11-.6A3.19,3.19,0,0,0,155.6,23a9.32,9.32,0,0,0,.28-1.49,26.59,26.59,0,0,0,.12-3,26.52,26.52,0,0,0-.12-3,9.48,9.48,0,0,0-.28-1.5,3.21,3.21,0,0,0-1.15-1.68,3.47,3.47,0,0,0-2.11-.6Z"/></g></g></svg>