<svg xmlns="http://www.w3.org/2000/svg" xmlns:xlink="http://www.w3.org/1999/xlink" viewBox="0 0 23 29"><defs><style>.cls-1{fill:url(#linear-gradient);}.cls-2{fill:none;stroke:#0078ff;stroke-miterlimit:10;stroke-width:3px;}</style><linearGradient id="linear-gradient" x1="11.5" y1="27.5" x2="11.5" y2="1.5" gradientUnits="userSpaceOnUse"><stop offset="0" stop-color="#66e9e0"/><stop offset="0.13" stop-color="#7fede5"/><stop offset="0.42" stop-color="#b6f5f0"/><stop offset="0.67" stop-color="#defaf8"/><stop offset="0.88" stop-color="#f6fefd"/><stop offset="1" stop-color="#fff"/></linearGradient></defs><title>Asset 113</title><g id="Layer_2" data-name="Layer 2"><g id="Elements"><path class="cls-1" d="M21.5,10.42v7.93a6.25,6.25,0,0,1-3.15,5.42l-6.23,3.56a1.25,1.25,0,0,1-1.24,0L4.65,23.77A6.25,6.25,0,0,1,1.5,18.35V4a1.25,1.25,0,0,1,.91-1.2A33,33,0,0,1,11.5,1.5a40.22,40.22,0,0,1,10,1.61"/><path class="cls-2" d="M7.63,13.53,11.5,17.4l7.87-7.87a1.25,1.25,0,0,1,2.13.88v7.93a6.25,6.25,0,0,1-3.15,5.42l-6.23,3.56a1.25,1.25,0,0,1-1.24,0L4.65,23.77A6.25,6.25,0,0,1,1.5,18.35V4a1.25,1.25,0,0,1,.91-1.2A33,33,0,0,1,11.5,1.5a40.22,40.22,0,0,1,10,1.61"/></g></g></svg>