<svg xmlns="http://www.w3.org/2000/svg" xmlns:xlink="http://www.w3.org/1999/xlink" viewBox="0 0 453.24 423.55"><defs><style>.cls-1{fill:url(#linear-gradient);}.cls-2{fill:url(#linear-gradient-2);}.cls-3,.cls-4,.cls-5,.cls-6,.cls-7{opacity:0.8;}.cls-4{fill:#11dccf;}.cls-5{fill:#66e9e0;}.cls-6{fill:#99f0eb;}.cls-7{fill:#ccf8f5;}.cls-10,.cls-8,.cls-9{fill:none;stroke-miterlimit:10;stroke-width:3px;}.cls-8{stroke:url(#linear-gradient-3);}.cls-9{stroke:url(#linear-gradient-4);}.cls-10{stroke:url(#linear-gradient-5);}</style><linearGradient id="linear-gradient" x1="305.46" y1="-240.58" x2="305.46" y2="178.42" gradientTransform="matrix(1, 0, 0, -1, -76, 182)" gradientUnits="userSpaceOnUse"><stop offset="0" stop-color="#ccf8f5"/><stop offset="1" stop-color="#66e9e0"/></linearGradient><linearGradient id="linear-gradient-2" x1="5.92" y1="3.21" x2="453" y2="3.21" gradientUnits="userSpaceOnUse"><stop offset="0" stop-color="#66e9e0"/><stop offset="1" stop-color="#99f0eb"/></linearGradient><linearGradient id="linear-gradient-3" x1="-646.58" y1="353.58" x2="-372.6" y2="353.58" gradientTransform="translate(512.11 -328) scale(0.79 1)" gradientUnits="userSpaceOnUse"><stop offset="0" stop-color="#036"/><stop offset="1" stop-color="#00dacc"/></linearGradient><linearGradient id="linear-gradient-4" x1="-635.21" y1="364.58" x2="-443.3" y2="364.58" xlink:href="#linear-gradient-3"/><linearGradient id="linear-gradient-5" x1="-621.32" y1="375.58" x2="-476.13" y2="375.58" xlink:href="#linear-gradient-3"/></defs><title>base</title><g id="Layer_2" data-name="Layer 2"><g id="Main"><path class="cls-1" d="M5.92,3.63S79,103.47,126,119.94c75.94,26.63,148.25,178.13,187,181.64,115,10.41,139,121,139,121l1-419Z"/><path class="cls-2" d="M453,3.88c-18.63,1.12-37.26,1.61-55.89,2l-14,.21-14,.09q-14,.11-27.94-.19c-18.63-.4-37.26-1.4-55.88-1.59s-37.26.06-55.89.61c-9.31.24-18.63.56-27.94.73s-18.63.29-27.94.4c-18.63.23-37.26.38-55.89.3S80.43,6,61.8,5.5,24.54,4.37,5.92,3.38v-.6c18.63-1,37.26-1.58,55.89-2S99.06.13,117.69,0s37.26.16,55.88.43c9.31.12,18.63.24,27.94.46s18.63.53,27.94.8c18.63.58,37.26.92,55.88.73S322.6,1.31,341.23,1q14-.25,27.94-.13l14,.12,14,.24c18.63.4,37.26.92,55.88,2.09Z"/><g class="cls-3"><g class="cls-3"><path class="cls-4" d="M66.67,58.64c18,14.54,35.35,25.54,53.85,38.42a73.07,73.07,0,0,1,7.63,6.48c3.7,3.73,5.19,6.88,8.37,9.85,3.55,3.07,7.19,6.08,10.93,9q2.8,2.19,5.68,4.29l6,4.42c4.13,2.93,8.12,6.11,12.15,9.21l5.94,4.83c2,1.62,3.89,3.32,5.84,5a296.58,296.58,0,0,1,22.15,21.27c7,7.47,13.51,15.32,19.79,23.23,4.89,6.22,9.57,12.47,14.29,18.6s9.52,12.1,14.53,17.86a241.79,241.79,0,0,0,33,31.38,288.4,288.4,0,0,0,38.23,25.08c13.44,7.46,27.37,14.31,41.75,20.9,4.06,1.9,8.16,3.66,12.19,5.5,2,.92,4,1.8,6.14,2.82,1.05.5,2.11,1,3.15,1.51l3.09,1.63a101.83,101.83,0,0,1,11.86,7.46,87.82,87.82,0,0,1,10.74,9.1,94.44,94.44,0,0,1,16.71,22.44,150,150,0,0,1,10.54,25.28c1.69,5.39,3.12,10.54,4.55,15.69s2.82,10.3,4.58,15.65l1.16,3.57,1.09,3.13c.79,1.55.93,2.06-.34-.15-2.27-4.54-5.27-10.54-8-16.42-6.08-13.38-11.87-26-19.57-37a90.39,90.39,0,0,0-29-27.26c-6.11-3.58-12.18-6.64-18.33-9.53l-4.89-2.39q-2.52-1.27-5-2.61c-3.29-1.78-6.54-3.61-9.69-5.63s-6.28-4-9.39-6.1l-9.18-6.49L337,307l-2.27-1.69-4.57-3.37-4.61-3.36-4.6-3.45c-12.13-8.89-23.15-17.24-33.85-25.76s-21.11-17.21-31.82-27c-1.43-1.29-2.77-2.67-4.1-4s-2.62-2.62-3.75-3.92a69.11,69.11,0,0,1-5.43-6.57,52.77,52.77,0,0,1-4.16-6.62c-1.05-1.75-2.65-3.86-7.15-8.92C224.74,205.82,219,200,213,194.24s-12.12-11.31-18.77-17.4c-5.6-5.18-11.13-10.08-16.81-14.63-1.4-1.16-2.87-2.22-4.3-3.33s-2.84-2.23-4.33-3.24c-3-2.07-5.83-4.2-8.88-6.11l-4.53-2.93c-1.53-.95-3.09-1.85-4.65-2.77l-4.71-2.75-5-2.84c-6.62-3.84-13.25-7.86-20-12.1A235.62,235.62,0,0,1,90.6,104.27a180.12,180.12,0,0,1-25-26A235.56,235.56,0,0,1,51.5,58c-4-6.27-7.7-12.21-12.32-18.53C35.9,35,31.92,30.37,27.71,25.6s-8.65-9.68-13-14.46c-1.77-1.91-3-3.52-5-5.53,5.53,4.91,12.26,11,19.38,17.44S43.52,36.31,50.18,42.93a32.16,32.16,0,0,1,3.41,4.39C57.71,51.76,62.21,55.06,66.67,58.64Z"/><path class="cls-5" d="M62.5,56.69C80.29,71.53,97.52,82.83,116,96a75.18,75.18,0,0,1,7.63,6.58c3.68,3.77,5.19,6.93,8.34,10a265.39,265.39,0,0,0,22.47,17.75q12.35,8.7,24.14,18.41a294.77,294.77,0,0,1,22.53,20.6c7.15,7.26,13.85,14.92,20.28,22.71,10,12.26,19,24.67,29,36.11a259.58,259.58,0,0,0,32.19,31.57,286.89,286.89,0,0,0,37.21,25.77c13.14,7.74,26.94,14.72,41.26,21.46l6.07,2.86c2,.95,4.07,1.83,6.09,2.74l6.06,2.72,3,1.36,3.12,1.45a104.22,104.22,0,0,1,23.34,14.86,91.52,91.52,0,0,1,18.15,21.08,128.93,128.93,0,0,1,11.82,24.81c3.78,10.74,6.16,20.6,9.48,31.35.63,2.25,2.06,6.4,3.21,9.38s2.1,4.71.83,2.5c-2.28-4.54-5.3-10.53-8-16.41-3.07-6.7-6-13.17-9.21-19.37a151.77,151.77,0,0,0-10.43-17.63,90.32,90.32,0,0,0-29-27.17c-6.11-3.55-12.17-6.61-18.31-9.49l-4.9-2.4q-2.52-1.27-5-2.61c-3.29-1.78-6.54-3.61-9.68-5.64s-6.28-4-9.38-6.11l-9.18-6.51-2.3-1.63-2.27-1.7L330,301.94l-4.6-3.37-4.6-3.46c-12.12-8.91-23.13-17.28-33.83-25.8s-21.1-17.22-31.82-27c-5.6-5.24-10.91-11-13.3-14.48a49.53,49.53,0,0,1-4.1-6.55c-1-1.72-2.59-3.79-7.1-8.85-5.95-6.51-11.7-12.38-17.67-18.09S200.87,183.08,194.21,177c-5.6-5.18-11.12-10.08-16.81-14.61-1.4-1.16-2.87-2.22-4.3-3.33s-2.84-2.23-4.33-3.24c-3-2.06-5.83-4.2-8.88-6.11l-4.52-2.93c-1.53-1-3.09-1.85-4.64-2.77L146,141.26l-5-2.84c-6.62-3.84-13.26-7.86-20.05-12.1a235.08,235.08,0,0,1-30.46-21.87,180,180,0,0,1-25-26A234.77,234.77,0,0,1,51.45,58.1c-4-6.27-7.68-12.22-12.3-18.55C35.87,35.12,31.9,30.48,27.7,25.7s-8.63-9.69-13-14.48c-1.75-1.91-3-3.53-5-5.53C15.2,10.6,21,16,27.17,21.83S39.63,34,46.2,40.72a34,34,0,0,1,3.38,4.42C53.67,49.65,58.09,53,62.5,56.69Z"/><path class="cls-6" d="M55.51,53.53c17.37,15.42,34.36,27.21,52.77,40.84a78.55,78.55,0,0,1,7.6,6.76c3.67,3.85,5.15,7.05,8.31,10.15,7.08,6.4,14.26,12.47,21.72,18.1,1.87,1.41,3.75,2.78,5.65,4.14l5.75,4.18c1.93,1.36,3.8,2.81,5.68,4.25s3.79,2.81,5.61,4.32a367,367,0,0,1,42.48,39.28c10.69,11.56,20.06,23.44,29.75,34.64a340.16,340.16,0,0,0,30.48,31.48c21.62,19.43,46,35.91,74.15,50.67,4,2.08,8,4.17,12,6.06l6,2.88c2,1,4,1.9,6,2.79l12.08,5.38,3,1.4,1.52.7,1.49.76,3,1.53,2.92,1.67,1.46.84,1.42.9c.95.61,1.91,1.19,2.84,1.82,1.84,1.3,3.71,2.56,5.46,4a85,85,0,0,1,10,9.16,93.58,93.58,0,0,1,8.59,10.64,108.67,108.67,0,0,1,7,11.78,177.39,177.39,0,0,1,7.71,17.88c2.39,6.44,4.42,12.94,6.06,18.34.63,2.26,2.5,7.79,4.18,12.09s3.08,7.41,1.92,5.15c-2.34-4.5-5.4-10.53-8.16-16.39-3.14-6.69-6.22-13.12-9.55-19.22a132.4,132.4,0,0,0-11-17.12A89.78,89.78,0,0,0,408,351.12a90.92,90.92,0,0,0-16.43-11L387,337.81l-2.32-1.11c-.76-.38-1.52-.76-2.31-1.1-1.55-.71-3.06-1.46-4.63-2.11l-2.3-1-2.54-1.19c-3.43-1.64-6.77-3.38-10-5.21s-6.44-3.86-9.59-5.88c-12.53-8.23-24.25-17.58-36.47-27-12-9.19-22.87-17.7-33.52-26.32s-21.05-17.35-31.76-27.15a106.1,106.1,0,0,1-13.31-14.52,32.71,32.71,0,0,1-3.53-5.94c-.78-1.39-2.08-3.15-6.66-8.15-6-6.43-11.84-12.22-17.9-17.79s-12.27-11-19-16.94a246.25,246.25,0,0,0-34.48-26.56c-3-2-6.1-3.72-9.18-5.55l-9.82-5.67c-6.63-3.91-13.26-8-20-12.34a232.9,232.9,0,0,1-30.3-22.29A179.91,179.91,0,0,1,62.51,77.51,239.23,239.23,0,0,1,48.64,57c-3.91-6.34-7.58-12.33-12.12-18.74-3.22-4.47-7.12-9.19-11.25-14s-8.46-9.86-12.79-14.7c-1.75-1.92-3-3.56-5.06-5.5,2.86,2.4,5.35,4.9,7.91,7.36s5,5,7.57,7.64C28,24.26,33.23,30.12,39.62,37.06a36.4,36.4,0,0,1,3.31,4.5C46.92,46.19,51.21,49.74,55.51,53.53Z"/><path class="cls-7" d="M52,56.29A144,144,0,0,0,69.62,70.45c6,4.3,13.06,9.4,24.19,18.36a87.09,87.09,0,0,1,7.46,7.11c3.6,4,5,7.26,8.11,10.51,6.95,6.73,14,13.14,21.34,19.16q5.51,4.51,11.26,8.69c1.92,1.39,3.86,2.76,5.84,4.08l5.74,4a372.79,372.79,0,0,1,44.38,35.43c2.85,2.62,5.5,5.32,8.13,7.93s5.1,5.27,7.5,7.89c4.85,5.21,9.39,10.34,13.82,15.34,8.84,10,17.32,19.37,26.23,28.33a381.73,381.73,0,0,0,28.67,26.12c10.43,8.56,21.85,17.28,35.13,26.26a363.66,363.66,0,0,0,43.71,25.47c3.6,1.85,7.29,3.51,11,5.21l11.09,5.05c1.82.86,3.62,1.81,5.44,2.76s3.61,2,5.35,3.12a90.77,90.77,0,0,1,10.4,7.45c2.09,1.77,4.93,4.22,8,7.22a93,93,0,0,1,9.09,10.57,91.5,91.5,0,0,1,12,22c.35,1.12,1.61,4,3.15,7.66s3.37,8.09,5.08,12.24L446,408.9c1.08,2.51,1.57,3.71,1,2.58-2.35-4.52-3.64-6.82-6.43-12.7-6.28-13.37-12.33-24.84-20.06-34.63a87.35,87.35,0,0,0-28.91-24L387,337.8l-2.34-1.12-1.15-.57-1.18-.53c-1.57-.72-3.1-1.47-4.69-2.14l-2.34-1.07-2.61-1.23c-3.5-1.67-6.91-3.47-10.27-5.34s-6.61-4-9.83-6.06l-4.8-3.19-4.7-3.37-4.66-3.4-2.32-1.71-2.29-1.77-9.16-7q-4.53-3.6-9.14-7.09C303.53,283,292.65,274.44,282,265.8c-2.68-2.13-5.26-4.37-7.94-6.51l-7.89-6.66c-5.21-4.56-10.53-9.15-15.87-14.07-2.85-2.61-5.52-5.42-7.87-7.94A72.18,72.18,0,0,1,237,224c-5-7.05-3.77-4.52-13.22-14.27-6.21-6.28-11.36-11.82-16.59-17.36s-10.56-11-17.29-16.94c-2.78-2.57-5.66-4.93-8.43-7.34l-4.27-3.44c-.71-.57-1.4-1.15-2.12-1.7l-2.17-1.63-4.31-3.24-4.4-3.08c-2.89-2.09-5.94-4-8.93-5.9-1.48-1-3-1.87-4.58-2.79l-4.63-2.72c-3.23-1.84-6.6-3.79-9.89-5.75-6.61-3.94-13.22-8.1-20-12.45A234.09,234.09,0,0,1,86.05,103,181.51,181.51,0,0,1,61.37,76.45,243.71,243.71,0,0,1,47.55,55.87C43.65,49.53,40,43.53,35.44,37.12c-3.21-4.47-7.11-9.19-11.23-14.05S15.77,13.2,11.43,8.36L9,5.65c-.4-.44-.82-.88-1.27-1.32-.23-.22-.47-.44-.73-.66a4,4,0,0,0-.44-.32c-.13-.09-.54-.27-.6-.1,0-.1.23-.1.41,0a2.56,2.56,0,0,1,.37.19c.21.13.4.28.58.42.36.28.7.57,1,.86.66.58,1.29,1.16,1.9,1.73,1.22,1.15,2.37,2.26,3.47,3.36C15.93,12,18,14.18,20.08,16.49c4.19,4.61,8.45,9.88,14.73,16.92,1.72,1.93,2.46,4.3,3.51,5.83-4.73-5.72-1.29-1.49,3.32,4.2Z"/></g></g><line class="cls-8" x1="217" y1="25.58" y2="25.58"/><line class="cls-9" x1="161" y1="36.58" x2="9" y2="36.58"/><line class="cls-10" x1="135" y1="47.58" x2="20" y2="47.58"/></g></g></svg>