<svg xmlns="http://www.w3.org/2000/svg" xmlns:xlink="http://www.w3.org/1999/xlink" viewBox="0 0 142.9 78"><defs><style>.cls-1{fill:url(#linear-gradient);}.cls-2{fill:none;}.cls-2,.cls-3{stroke:#036;stroke-miterlimit:10;stroke-width:4px;}.cls-3{fill:url(#linear-gradient-2);}.cls-4{fill:#fff;}.cls-5{fill:#036;}</style><linearGradient id="linear-gradient" x1="79.19" y1="30" x2="79.19" y2="2" gradientUnits="userSpaceOnUse"><stop offset="0" stop-color="#66e9e0"/><stop offset="0.16" stop-color="#6aeae1"/><stop offset="0.32" stop-color="#77ebe3"/><stop offset="0.48" stop-color="#8beee8"/><stop offset="0.65" stop-color="#a8f3ed"/><stop offset="0.82" stop-color="#cef8f5"/><stop offset="0.99" stop-color="#fbfefe"/><stop offset="1" stop-color="#fff"/></linearGradient><linearGradient id="linear-gradient-2" x1="70.95" y1="62" x2="70.95" y2="30" gradientUnits="userSpaceOnUse"><stop offset="0" stop-color="#0078ff"/><stop offset="1" stop-color="#3393ff"/></linearGradient></defs><title>car</title><g id="Layer_2" data-name="Layer 2"><g id="Main"><polyline class="cls-1" points="120.45 30 109.78 2 58.89 2 44.89 26.2 37.94 30"/><path class="cls-2" d="M120.95,30,110.28,2H70.44A20.64,20.64,0,0,0,54.19,9.91L38.44,30"/><polyline class="cls-3" points="71.95 62 7.95 62 7.95 42.38 21.28 30 38.44 30 120.95 30 133.95 40.74 133.95 62 71.95 62"/><polyline class="cls-2" points="133.95 62 140.9 62 140.9 52.9"/><line class="cls-2" x1="7.95" y1="62" y2="62"/><line class="cls-2" x1="87.95" y1="42" x2="75.95" y2="42"/><line class="cls-2" x1="96.95" y1="30" x2="96.95" y2="2"/><path class="cls-4" d="M107.78,74a12,12,0,1,1,12-12A12,12,0,0,1,107.78,74Z"/><path class="cls-5" d="M107.78,54a8,8,0,1,1-8,8,8,8,0,0,1,8-8m0-8a16,16,0,1,0,16,16,16,16,0,0,0-16-16Z"/><path class="cls-4" d="M36.11,74a12,12,0,1,1,12-12A12,12,0,0,1,36.11,74Z"/><path class="cls-5" d="M36.12,54a8,8,0,1,1-8,8,8,8,0,0,1,8-8m0-8a16,16,0,1,0,16,16,16,16,0,0,0-16-16Z"/></g></g></svg>