<svg xmlns="http://www.w3.org/2000/svg" viewBox="0 0 34 21"><defs><style>.cls-1{fill:#fff;}.cls-1,.cls-2{stroke:#036;stroke-linecap:round;stroke-linejoin:round;stroke-width:2px;}.cls-2{fill:#ccf8f5;}</style></defs><title>car2</title><g id="Layer_2" data-name="Layer 2"><g id="Elements"><g id="Main"><polyline class="cls-1" points="25.34 8 19.57 1 10.2 1 5.25 7.62"/><polygon class="cls-2" points="18 17 1 17 1 10.69 4.51 8 28.34 8 33 13.1 33 15.94 31.87 17 18 17"/><line class="cls-2" x1="18" y1="11" x2="15" y2="11"/><line class="cls-2" x1="14.85" y1="1" x2="11.73" y2="10.62"/><path class="cls-2" d="M5.12,17a3,3,0,1,1,3,3A3,3,0,0,1,5.12,17Z"/><path class="cls-2" d="M23,17a3,3,0,1,1,3,3A3,3,0,0,1,23,17Z"/></g></g></g></svg>