<svg xmlns="http://www.w3.org/2000/svg" viewBox="0 0 24 25"><defs><style>.cls-1{fill:#ccf8f5;}.cls-1,.cls-2{stroke:#036;stroke-linecap:round;stroke-linejoin:round;stroke-width:2px;}.cls-2{fill:#fff;}</style></defs><title>driver</title><g id="Layer_2" data-name="Layer 2"><g id="Elements"><path class="cls-1" d="M12,15.37C5.52,15.37,1,18,1,21.84V24H23V21.84C23,18,18.48,15.37,12,15.37Z"/><polyline class="cls-1" points="8.65 15.63 12 20.76 15.36 15.63"/><path class="cls-2" d="M7,7V9.38c0,3.62,2.83,6.48,6,5.71,2.35-.56,4-3.14,4-5.94V7"/><polygon class="cls-1" points="17 7 18.41 2.86 12 1 5.59 2.86 7 7 17 7"/><path class="cls-2" d="M13.43,3.38a2,2,0,0,0-2.83,0,2,2,0,0,0,0,2.81,2,2,0,0,0,2.83,0A2,2,0,0,0,13.43,3.38Z"/></g></g></svg>