<svg xmlns="http://www.w3.org/2000/svg" viewBox="0 0 25 26.42"><defs><style>.cls-1{fill:#ccf8f5;}.cls-1,.cls-2{stroke:#036;stroke-linecap:round;stroke-linejoin:round;stroke-width:2px;}.cls-2{fill:#fff;}</style></defs><title>hail</title><g id="Layer_2" data-name="Layer 2"><g id="Elements"><polyline class="cls-1" points="18.97 15 22.11 15 24 13.3 24 8.25 21.59 6 18 6 18 4 15 1 10 1 7 4 7 6 4 6 1 8.7 1 13.3 3 15 6 15"/><polygon class="cls-2" points="9.8 14.62 7.3 11.62 4.8 14.62 7.3 17.62 9.8 14.62"/><polygon class="cls-2" points="14.31 22.42 11.81 19.42 9.31 22.42 11.81 25.42 14.31 22.42"/><polygon class="cls-2" points="19.87 16.5 17.37 13.5 14.87 16.5 17.37 19.5 19.87 16.5"/></g></g></svg>