<svg xmlns="http://www.w3.org/2000/svg" xmlns:xlink="http://www.w3.org/1999/xlink" viewBox="0 0 293.9 147.37"><defs><style>.cls-1{opacity:0.5;}.cls-2{fill:url(#radial-gradient);}.cls-3,.cls-4{opacity:0.8;}.cls-4{fill:#fff;}</style><radialGradient id="radial-gradient" cx="147.56" cy="146.32" r="143" gradientTransform="translate(0 -2.94) scale(1 1.02)" gradientUnits="userSpaceOnUse"><stop offset="0" stop-color="#fff"/><stop offset="1" stop-color="#fff" stop-opacity="0.2"/></radialGradient></defs><title>halo</title><g id="Layer_2" data-name="Layer 2"><g id="Main"><g class="cls-1"><path class="cls-2" d="M3.41,146.32a143,143,0,0,1,286,0"/><g class="cls-3"><g class="cls-3"><path class="cls-4" d="M11.35,87A149.75,149.75,0,0,1,22.08,64.28,125.26,125.26,0,0,1,36.94,43.77a50.71,50.71,0,0,1,5.73-5.36,38.48,38.48,0,0,1,4.29-3c1.33-.79,2.58-1.52,3.93-2.49A173.24,173.24,0,0,1,69.13,21.08a177.59,177.59,0,0,1,19.8-9.5,183.21,183.21,0,0,1,21-6.84,185.16,185.16,0,0,1,21.83-4A141.75,141.75,0,0,1,166,1.35c2.82.31,5.59.92,8.37,1.42,1.39.23,2.76.59,4.13.91l4.11,1c2.71.79,5.42,1.54,8.09,2.41l4,1.39,2,.7,2,.79a150.93,150.93,0,0,1,29.83,15.89,162.87,162.87,0,0,1,26.11,22.54c2.19,2.49,4.47,4.9,6.5,7.49,1,1.29,2.12,2.51,3.08,3.84l2.93,3.94A151.85,151.85,0,0,1,277.51,80.2l1.18,2.14c.39.72.72,1.46,1.09,2.18l2.15,4.39,1.94,4.49,1,2.25.86,2.3,1.71,4.61,1.49,4.71c.24.79.51,1.57.73,2.37l.63,2.4c.41,1.61.85,3.21,1.24,4.83a104,104,0,0,1,2.4,24.21,29,29,0,0,1-.82,5.24c-.42,1.25-.87,1.63-1.24-.22s-.81-4-1.18-6.29-.92-4.63-1.3-7a129.37,129.37,0,0,0-8.9-28.83,154.42,154.42,0,0,0-14.66-26A299.07,299.07,0,0,0,247,53.23a126.08,126.08,0,0,0-22.51-20.94,114.81,114.81,0,0,0-25.93-13.41A145,145,0,0,0,171,11.76c-1.28-.24-2.56-.53-3.81-.83s-2.48-.51-3.63-.79-2.22-.59-3.19-.88-1.82-.51-2.53-.77c-2.92-.9-3.87-1.64-5.26-2.07a13.69,13.69,0,0,0-2.75-.57,33.48,33.48,0,0,0-5.3-.23l-4.6.22c-1.51.09-3,.31-4.47.47s-2.94.3-4.38.59l-4.33.77c-1.45.23-2.88.58-4.33.91l-4.38,1-4.46,1.17c-.75.2-1.53.37-2.29.59l-2.32.68a141.45,141.45,0,0,0-29.48,11.6A115.83,115.83,0,0,0,53.86,42.25,167.53,167.53,0,0,0,37.1,61.71c-5,6.78-9.56,13.71-13.86,20.54l-2.5,4c-.76,1.3-1.51,2.53-2.26,3.73l-1.11,1.77-1,1.76-2,3.42c-1.32,2.25-2.49,4.52-3.75,6.83s-2.29,4.77-3.37,7.41c-3,7.44-4.6,17.24-5.5,26.67-.23,1.89-.63,3.37-1,5.42C.5,141.89.33,140.46.19,139S.06,135.9,0,134.28A92.65,92.65,0,0,1,.49,124a105,105,0,0,1,4.67-21.14,23.24,23.24,0,0,1,1.89-3.74c.42-1.05.8-2.09,1.14-3.13s.74-2,1.08-3C10,91,10.53,88.93,11.35,87Z"/><path class="cls-4" d="M10.87,90.27A157.46,157.46,0,0,1,21.06,67.5a119.49,119.49,0,0,1,14.3-20.74,66.41,66.41,0,0,1,5.56-5.46,48.47,48.47,0,0,1,4.23-3L47,37c.64-.41,1.29-.83,2-1.32A162.57,162.57,0,0,1,66.88,23.55c1.58-.9,3.1-1.88,4.72-2.71l4.82-2.56c1.62-.82,3.29-1.57,4.93-2.37s3.32-1.51,5-2.22c3.33-1.5,6.79-2.7,10.22-4,3.49-1.13,7-2.33,10.51-3.24l2.65-.74c.89-.24,1.79-.42,2.68-.64,1.79-.4,3.57-.86,5.38-1.22l5.43-1c1.81-.35,3.64-.53,5.46-.81a140.42,140.42,0,0,1,66.21,7.36,145.93,145.93,0,0,1,29.76,14.79,157.45,157.45,0,0,1,13.73,9.91c1.11.89,2.17,1.84,3.27,2.77s2.21,1.83,3.24,2.83c2.09,2,4.26,3.9,6.26,6a157.08,157.08,0,0,1,23.78,30.93,145.52,145.52,0,0,1,14.93,36.1,98.36,98.36,0,0,1,3.14,24c0,1.74-.18,5-.38,7.36s-.52,3.77-.89,1.92-.81-4-1.18-6.29-.93-4.63-1.31-6.95a129.09,129.09,0,0,0-8.92-28.8,154.42,154.42,0,0,0-14.67-26,298.33,298.33,0,0,0-18.78-24.74,126,126,0,0,0-22.51-20.92,114.87,114.87,0,0,0-25.92-13.39,144.88,144.88,0,0,0-27.56-7.1c-1.28-.24-2.56-.54-3.81-.82s-2.48-.51-3.63-.79-2.22-.6-3.19-.87-1.83-.51-2.53-.77c-2.92-.9-3.83-1.64-5.19-2.07a13.08,13.08,0,0,0-2.71-.57,33.29,33.29,0,0,0-5.28-.23l-4.6.22c-1.51.08-3,.31-4.47.47s-2.94.3-4.38.59l-4.33.77c-1.45.23-2.88.58-4.33.91l-4.38,1-4.46,1.17c-.75.2-1.52.37-2.29.59l-2.31.68A141.58,141.58,0,0,0,79.53,23.67,115.75,115.75,0,0,0,54,42.29,167.4,167.4,0,0,0,37.2,61.73c-5,6.77-9.56,13.69-13.86,20.52-.85,1.39-1.7,2.7-2.5,4s-1.51,2.53-2.25,3.73l-1.11,1.77-1,1.76-2,3.41c-1.33,2.25-2.49,4.52-3.75,6.83s-2.29,4.77-3.37,7.41c-3,7.44-4.6,17.23-5.51,26.66-.23,1.88-.63,3.37-1,5.4-1.52-10.74,0-23.6,4.33-36.93a23.5,23.5,0,0,1,1.74-3.78,60.8,60.8,0,0,0,2.07-6.18Z"/><path class="cls-4" d="M10.49,95.79a149.18,149.18,0,0,1,9.24-22.86,122.2,122.2,0,0,1,13.37-21c.79-1,1.65-1.9,2.54-2.83s1.8-1.87,2.78-2.74c1.52-1.32,2.82-2.26,4.05-3.14s2.47-1.62,3.74-2.65l2-1.71c.68-.56,1.4-1.08,2.09-1.62,1.4-1.06,2.77-2.15,4.18-3.17l4.27-3c1.39-1,2.9-1.87,4.34-2.8S66,26.43,67.51,25.6L72,23.07c3-1.54,6-3.18,9.14-4.55s6.24-2.72,9.39-4.05C93.7,13.31,96.88,12,100.21,11l2.48-.8,1.24-.4,1.26-.35,5.07-1.42c1.71-.44,3.44-.81,5.18-1.23.87-.2,1.74-.44,2.62-.6l2.66-.51a139.41,139.41,0,0,1,64,2.75,147.58,147.58,0,0,1,29.41,11.77,152.76,152.76,0,0,1,41.24,32.35c2.21,2.33,4.18,4.86,6.24,7.31,1,1.26,1.93,2.55,2.9,3.82l1.45,1.91,1.36,2,2.7,4,2.52,4.08c.41.68.86,1.36,1.25,2.05l1.16,2.1c.76,1.41,1.58,2.8,2.31,4.23,1.4,2.89,2.9,5.76,4.12,8.76.62,1.5,1.32,3,1.88,4.5l1.7,4.59c1.29,3.88,2.79,8.64,3.94,13.51a82.2,82.2,0,0,1,2.17,14c.12,1.72.29,6,.44,9.41,0,3.4-.14,5.89-.55,4s-.76-4-1.3-6.23-.88-4.6-1.45-6.88a131,131,0,0,0-9.54-28.44A155.78,155.78,0,0,0,263.5,75.73c-6.39-8.67-12.53-16.65-19.25-24.16-1.63-1.93-3.45-3.67-5.17-5.51s-3.64-3.5-5.47-5.27-3.85-3.36-5.88-4.94l-3.1-2.34c-.52-.39-1-.79-1.58-1.16l-1.64-1.08a116.29,116.29,0,0,0-26.06-12.75A144.62,144.62,0,0,0,167.79,12c-2.57-.42-5.15-.88-7.44-1.47a39.59,39.59,0,0,1-5.72-1.48A29.17,29.17,0,0,1,150,7.26c-1.08-.39-2.61-.78-7.38-.62A109.8,109.8,0,0,0,125,8.89l-4.28,1-2.16.49-2.17.59-4.43,1.16-4.55,1.35-2,.55c-.65.19-1.29.42-1.93.63L99.68,15.9c-2.52.87-5,1.85-7.4,2.78l-3.58,1.56c-1.19.53-2.39,1-3.54,1.61-2.3,1.18-4.66,2.24-6.87,3.56A114,114,0,0,0,53.1,44.22,163.45,163.45,0,0,0,36.73,63.77c-4.91,6.8-9.3,13.74-13.46,20.59l-1.26,2-1.15,2c-.76,1.29-1.5,2.52-2.25,3.72-1.36,2.44-2.75,4.7-4,7a109.9,109.9,0,0,0-6.87,14.24c-2.85,7.43-4.37,17.18-5.14,26.56a49,49,0,0,1-1,5.39c-.19-1.33-.33-2.65-.44-4a32.1,32.1,0,0,1-.15-3.9c0-1.3.07-2.6.15-3.91l.13-2,.26-2c.39-2.67.78-5.44,1.48-8.35.33-1.46.64-3,1-4.52l1.29-4.82A18,18,0,0,1,7,108C8.39,103.76,9.28,99.81,10.49,95.79Z"/><path class="cls-4" d="M13.15,97.1c2-6.19,3.15-10.42,5-15.43.47-1.25,1-2.56,1.52-4s1.3-2.84,2.07-4.45,1.7-3.31,2.79-5.17c.54-.93,1.11-1.91,1.73-2.93L28.36,62a34.67,34.67,0,0,1,2.25-3c.83-1,1.7-1.92,2.57-2.87.69-.71,1.31-1.33,1.94-1.88s1.24-1,1.83-1.48c1.17-.93,2.27-1.8,3.44-2.91A170.44,170.44,0,0,1,56.07,36.65,180.91,180.91,0,0,1,73,25.79,186.59,186.59,0,0,1,91.19,17a192.19,192.19,0,0,1,19.71-6.73,132.9,132.9,0,0,1,30.24-4.47,139.17,139.17,0,0,1,27.15,1.77,144,144,0,0,1,26.36,7A151,151,0,0,1,222.3,28.16c2.75,1.63,5.27,3.48,7.79,5.19,1.24.88,2.42,1.83,3.62,2.73s2.39,1.79,3.5,2.76l3.37,2.82c1.11.94,2.15,2,3.22,2.92,2.17,1.91,4.14,4,6.17,6,1,1,1.95,2.1,2.93,3.15s2,2.11,2.87,3.22c1.81,2.25,3.75,4.42,5.46,6.82l2.66,3.57,2.54,3.75c.42.63.87,1.26,1.28,1.91l1.21,2c.81,1.33,1.66,2.66,2.46,4,1.88,3.52,5.5,9.49,8.28,15.92.36.8.74,1.59,1.08,2.39l.95,2.41c.61,1.59,1.25,3.13,1.73,4.63s.91,2.92,1.27,4.21l.5,1.84c.13.58.23,1.13.31,1.64.1.85.68,3,1.39,5.82l1,4.54c.17.8.38,1.6.53,2.42l.43,2.43c.28,1.6.57,3.16.79,4.56l.42,3.65c.21,2,.26,2.93,0,2-1-3.64-1.48-5.49-2.57-10.05a130.21,130.21,0,0,0-9.44-27.18,154.87,154.87,0,0,0-14.6-24.53,313.09,313.09,0,0,0-19.63-24.56,121.57,121.57,0,0,0-23.4-20.5,115.87,115.87,0,0,0-26.15-12.55,142.25,142.25,0,0,0-27.61-6.24c-2.58-.33-5.15-.92-7.45-1.37A39.83,39.83,0,0,1,153.52,9a17.85,17.85,0,0,0-5.4-.89c-1.45,0-3.33.29-8,.39-1.53.06-3,.24-4.44.33s-2.85.16-4.22.33l-4.08.45-2,.21-2,.31-4,.62c-1.36.2-2.72.54-4.12.82s-2.84.56-4.29,1l-4.5,1.27c-1.33.34-2.59.82-3.88,1.23l-3.81,1.26L95,17.72c-1.23.48-2.47.9-3.65,1.46-2.38,1.07-4.8,2-7.09,3.22l-3.46,1.73c-1.15.59-2.25,1.25-3.38,1.88S75.14,27.25,74,27.93L70.78,30c-2.21,1.35-4.26,2.95-6.39,4.47-1.07.75-2.06,1.61-3.09,2.44l-3.06,2.53-3,2.73c-1,.92-2,1.83-2.91,2.83A167,167,0,0,0,36.15,64.66c-4.88,6.82-9.21,13.8-13.31,20.68-.88,1.36-1.59,2.73-2.36,4s-1.54,2.5-2.21,3.73-1.36,2.4-2,3.55l-1,1.71-.92,1.72c-1.22,2.28-2.5,4.5-3.57,6.86l-1.68,3.59c-.53,1.23-1,2.51-1.52,3.83-2.78,7.44-4.22,17.2-4.92,26.59a48.31,48.31,0,0,1-1,5.38A54.74,54.74,0,0,1,1.1,139a67.34,67.34,0,0,1,.63-6.73c.34-2.26.9-4.6,1.41-7.22l2.08-8.83c.5-1.83,1.79-3.21,2.28-4.45-.75,2.57-.84,2.92-.55,2s.91-3.15,1.85-5.62l1.37-3.84c.49-1.27,1-2.48,1.45-3.55l1.08-2.62C13,97.47,13.15,97.1,13.15,97.1Z"/></g></g></g></g></g></svg>