<?xml version="1.0" encoding="utf-8"?>
<!-- Generator: Adobe Illustrator 21.0.0, SVG Export Plug-In . SVG Version: 6.00 Build 0)  -->
<svg version="1.1" id="Layer_1" xmlns="http://www.w3.org/2000/svg" xmlns:xlink="http://www.w3.org/1999/xlink" x="0px" y="0px"
	 viewBox="0 0 88 32.7" style="enable-background:new 0 0 88 32.7;" xml:space="preserve">
<style type="text/css">
	.st0{fill:#FFFFFF;}
</style>
<title>Asset 6</title>
<g id="Layer_2">
	<g id="Layer_1-2">
		<polygon class="st0" points="17,10.5 7.2,10.5 7.2,0 6.7,0 0,2.2 0,5.1 3.4,4.7 3.4,25 7.1,25 7.2,25 7.2,13.6 17,13.6 17,25 
			20.9,25 20.9,0 17,0 		"/>
		<path class="st0" d="M33.9,7.8c-5.5,0-9,3.4-9,8.6c0,5.5,3.5,8.9,9,8.9s9-3.4,9-8.8S39.4,7.8,33.9,7.8z M34,22.5
			c-3.3,0-5.3-2.3-5.3-6s2-5.9,5.2-5.9s5.2,2.3,5.2,6S37.2,22.5,34,22.5z"/>
		<path class="st0" d="M55.4,7.8c-2.1-0.2-4.2,0.7-5.5,2.4l-0.2-2h-3.3V25h3.7v-7.9c-0.1-1.5,0.1-3,0.7-4.4c0.7-1.4,2.2-2.2,3.7-2.1
			c2.7,0,3.7,1.5,3.7,5.6V25h3.7v-9c0.1-1.8-0.2-3.6-0.9-5.2C60.1,8.8,58.1,7.8,55.4,7.8z"/>
		<path class="st0" d="M69.2,0.8c-1.2-0.1-2.2,0.7-2.3,1.9c0,0.1,0,0.2,0,0.3c-0.1,1.1,0.8,2.1,1.9,2.2c0.1,0,0.2,0,0.4,0
			c1.2,0.1,2.2-0.8,2.3-1.9c0-0.1,0-0.2,0-0.3c0.1-1.2-0.8-2.1-2-2.2C69.4,0.8,69.3,0.8,69.2,0.8z"/>
		<rect x="67.4" y="8.2" class="st0" width="3.7" height="16.7"/>
		<path class="st0" d="M82.9,15c-0.9-0.3-1.8-0.6-2.7-1c-0.6-0.3-1-0.9-1-1.6c0-1.2,0.9-1.9,2.7-1.9c1.5,0,2.9,0.5,4.1,1.3l1.3-2.4
			c-1.7-1.1-3.6-1.6-5.6-1.6c-3.8,0-5.9,1.7-5.9,4.8c0,2.4,1.4,4,4.5,5c2.9,0.9,2.9,0.9,3.5,1.3c0.5,0.3,0.8,0.9,0.7,1.4
			c0,1.5-1.2,2.3-3.4,2.3c-1.7,0.1-3.4-0.4-4.8-1.4l-1.2,2.6c1.9,1,4.1,1.5,6.2,1.4c4.4,0,6.6-1.7,6.6-5.1
			C88,17.5,86.8,16.3,82.9,15z"/>
		<rect x="3.4" y="29.7" class="st0" width="84.6" height="3.1"/>
	</g>
</g>
</svg>
