<svg xmlns="http://www.w3.org/2000/svg" xmlns:xlink="http://www.w3.org/1999/xlink" viewBox="0 0 267.79 344.05"><defs><style>.cls-1{opacity:0.3;}.cls-2{fill:url(#linear-gradient);}.cls-3,.cls-4,.cls-5,.cls-6,.cls-7{opacity:0.8;}.cls-4{fill:#11dccf;}.cls-5{fill:#66e9e0;}.cls-6{fill:#99f0eb;}.cls-7{fill:#ccf8f5;}.cls-8{opacity:0.5;}.cls-9{fill:url(#linear-gradient-2);}.cls-10{fill:url(#linear-gradient-3);}.cls-11{fill:#33e1d6;}.cls-12{fill:url(#linear-gradient-4);}</style><linearGradient id="linear-gradient" x1="1521.91" y1="-770.28" x2="1521.91" y2="-707.06" gradientTransform="matrix(-1, 0, 0, 1, 1581.86, 1002.11)" gradientUnits="userSpaceOnUse"><stop offset="0" stop-color="#ccf8f5"/><stop offset="1" stop-color="#66e9e0"/></linearGradient><linearGradient id="linear-gradient-2" x1="703.13" y1="-745.11" x2="703.13" y2="-707.06" gradientTransform="translate(-564.92 1002.11)" xlink:href="#linear-gradient"/><linearGradient id="linear-gradient-3" x1="185.49" y1="2337.85" x2="417.98" y2="2203.62" gradientTransform="translate(-76 -2074.43)" gradientUnits="userSpaceOnUse"><stop offset="0" stop-color="#ccf8f5"/><stop offset="1" stop-color="#66e9e0" stop-opacity="0.6"/></linearGradient><linearGradient id="linear-gradient-4" x1="174.04" y1="142.55" x2="268.9" y2="142.55" gradientUnits="userSpaceOnUse"><stop offset="0" stop-color="#66e9e0"/><stop offset="1" stop-color="#99f0eb"/></linearGradient></defs><title>mountain</title><g id="Layer_2" data-name="Layer 2"><g id="Main"><g class="cls-1"><path class="cls-2" d="M119.43,295s-22.17-22-32-30.95c-22.59-20.63-28.83-30.91-39.09-32.24C38.59,230.57.47,295,.47,295h119Z"/><g class="cls-3"><g class="cls-3"><path class="cls-4" d="M100.63,278.44c-5.6-3.75-11.13-6.2-16.59-9.38a10.89,10.89,0,0,1-2.13-1.82c-1-1.14-1.23-2.3-2.08-3.21-.49-.45-1-.89-1.49-1.33l-1.73-1.46c-1.15-1-2.31-2-3.47-3.1a28.55,28.55,0,0,1-3.47-3.78,9,9,0,0,1-2.24-5.91,13.25,13.25,0,0,1,.25-1.6c.06-.24.12-.59.17-.73l.12-.41c.05-.17.11-.14,0-.44a8.78,8.78,0,0,0-2.11-2.43A58.89,58.89,0,0,0,59,238c-1.9-1.21-3.81-2.41-5.73-3.57-1-.58-1.92-1.16-2.89-1.72L49,231.89l-.73-.41-.36-.21-.27-.13c-1.35-.73-3.43.19-5,1.45a26.4,26.4,0,0,0-4.5,4.61,69.08,69.08,0,0,0-6.93,11.28c-2,4-3.91,8.1-5.87,12.28-2.23,4.74-4.46,9.34-6.77,13.91a89.46,89.46,0,0,1-8,13.32,36.13,36.13,0,0,1-3.33,3.69,21.28,21.28,0,0,1-2,1.67,8.07,8.07,0,0,1-2.58,1.37,3.75,3.75,0,0,1-.8.08l-.47,0c-.15,0-.27-.17-.4-.25A2.06,2.06,0,0,1,.36,294l-.21-.5c-.21-.46-.25-.62.15,0a1.58,1.58,0,0,0,1.11.87,2.31,2.31,0,0,0,1.43-.49,9.24,9.24,0,0,0,2-2.11,26.8,26.8,0,0,0,2.92-5.52,59.31,59.31,0,0,0,2-5.75c1.13-3.89,2-7.92,3.24-12.24a33.4,33.4,0,0,1,5.87-11.76c2.64-3.46,5.72-6.64,8.59-10.13s5.27-6.61,7.8-9.76c1.28-1.57,2.55-3.14,4-4.67a24.86,24.86,0,0,1,2.41-2.24,11,11,0,0,1,3.28-1.88,6.65,6.65,0,0,1,2.38-.31,7.76,7.76,0,0,1,1.23.23l.57.21.28.11.17.08a14.05,14.05,0,0,1,2.14,1.25c2.08,1.44,1,1.59,4.65,3.17,2.37,1,4.66,1.83,7,2.75a29.11,29.11,0,0,1,7.18,3.75,11.47,11.47,0,0,1,3,3.38,6.61,6.61,0,0,1,.77,4.18l0,.2,0,.11-.05.21a2.29,2.29,0,0,0,.09,1.67,4,4,0,0,0,.46.72,3.61,3.61,0,0,0,.38.4,5.74,5.74,0,0,0,.45.43,28.86,28.86,0,0,0,4.84,3.31c.9.52,1.84,1,2.82,1.48l3.16,1.59a49.14,49.14,0,0,1,9.47,5.91,35.08,35.08,0,0,1,7.23,7.89c3.12,4.73,4.16,8.56,6.63,12.44a67.43,67.43,0,0,0,7.09,8.25c.53.55.88,1,1.48,1.6-3.45-2.68-8.67-6.34-12.64-10a5.45,5.45,0,0,1-.91-1.33A20.75,20.75,0,0,0,100.63,278.44Z"/><path class="cls-5" d="M102.08,278.75c-5.52-3.89-11-6.48-16.51-9.76a11.37,11.37,0,0,1-2.15-1.85c-1-1.15-1.23-2.32-2.09-3.25q-.74-.69-1.5-1.36l-.77-.66-.85-.71q-1.73-1.41-3.45-2.94a45.09,45.09,0,0,1-3.42-3.32A12,12,0,0,1,68.47,250a7,7,0,0,1,.05-2.92l.16-.72.15-.56c0-.08,0-.17,0-.24s0-.13,0-.19c0-.48-.73-1.54-1.66-2.4a43.08,43.08,0,0,0-6.81-4.85c-3.83-2.37-7.69-4.64-11.57-6.74l-.73-.4c-.24-.13-.4-.17-.6-.28a3.36,3.36,0,0,0-1.28-.13,6.47,6.47,0,0,0-2.72,1,21.47,21.47,0,0,0-4.69,4.28,65.24,65.24,0,0,0-7.23,10.92c-2.12,3.89-4.07,8-6,12.13-2.24,4.74-4.42,9.37-6.67,14a106.75,106.75,0,0,1-7.64,13.49,42.5,42.5,0,0,1-3.08,3.8,22.93,22.93,0,0,1-3.81,3.42,9.73,9.73,0,0,1-1.4.75,3.49,3.49,0,0,1-1,.23,3.38,3.38,0,0,1-.58,0,2,2,0,0,1-.48-.28,2.48,2.48,0,0,1-.68-1c-.07-.15,0-.14.17.2a1.51,1.51,0,0,0,1.12.83,2.28,2.28,0,0,0,1.41-.51,9.33,9.33,0,0,0,1.95-2.12,27,27,0,0,0,2.9-5.53,60.07,60.07,0,0,0,1.94-5.75c1.12-3.9,2-7.92,3.22-12.25a33.21,33.21,0,0,1,5.87-11.76c2.65-3.46,5.74-6.63,8.62-10.11s5.29-6.6,7.82-9.75c1.28-1.57,2.55-3.14,4-4.67a24.43,24.43,0,0,1,2.42-2.24,10.93,10.93,0,0,1,3.3-1.88,6.59,6.59,0,0,1,2.4-.29,7,7,0,0,1,1.23.24,8.12,8.12,0,0,1,1,.4,14.11,14.11,0,0,1,2.14,1.25c2.08,1.44,1,1.57,4.61,3.14,2.38,1,4.66,1.82,7,2.74A29.08,29.08,0,0,1,70.5,239a11.57,11.57,0,0,1,3,3.38,7.06,7.06,0,0,1,.86,3,7,7,0,0,1-.06,1.27,3.49,3.49,0,0,1-.1.52,2.24,2.24,0,0,0,.08,1.63,3.72,3.72,0,0,0,.44.71,3.28,3.28,0,0,0,.37.39,5.83,5.83,0,0,0,.44.42,28.72,28.72,0,0,0,4.82,3.3c.9.52,1.84,1,2.82,1.47l3.17,1.59a49.07,49.07,0,0,1,9.48,5.92,35.08,35.08,0,0,1,7.22,7.9c3.12,4.74,4.16,8.57,6.62,12.46a67.9,67.9,0,0,0,7.07,8.27c.52.55.88,1,1.47,1.6a112.92,112.92,0,0,1-11.27-9.57,5.82,5.82,0,0,1-.9-1.35A21.18,21.18,0,0,0,102.08,278.75Z"/><path class="cls-6" d="M104.53,279.23c-5.35-4.16-10.76-7-16.28-10.48a12.25,12.25,0,0,1-2.16-1.94c-1-1.19-1.23-2.37-2.1-3.32-3.82-3.82-8.7-7-12.19-11.53a5.28,5.28,0,0,1-1.2-4c.12-.71.37-1.39.43-2.07a3.62,3.62,0,0,0-.39-2,11,11,0,0,0-2.86-3.11,33.52,33.52,0,0,0-3.61-2.39C60.23,236,56.31,234,52.45,232.1l-2.89-1.41a6.18,6.18,0,0,0-3-.94,6.27,6.27,0,0,0-3,1,16,16,0,0,0-2.53,1.89,54.17,54.17,0,0,0-8,9.95,133,133,0,0,0-6.74,11.57c-4.88,9.31-8.45,18.67-13.53,27.8-1.64,2.82-4.05,6.88-6.52,9.29a21.32,21.32,0,0,1-3,2.61,3.08,3.08,0,0,1-1.75.58c-.22,0-.33,0-.34-.07a1.16,1.16,0,0,0,.32,0,2.22,2.22,0,0,0,1.23-.49,5.78,5.78,0,0,0,1-.94,16.12,16.12,0,0,0,1.6-2.33A46.56,46.56,0,0,0,9.74,279c1-3.93,1.9-8,3.11-12.31a31.82,31.82,0,0,1,2.43-6.26A32.86,32.86,0,0,1,18.91,255c2.76-3.4,6-6.52,8.94-10s5.43-6.53,8-9.67a54.66,54.66,0,0,1,4.19-4.65,17.29,17.29,0,0,1,2.69-2.18,8.47,8.47,0,0,1,4-1.42,6.28,6.28,0,0,1,2.67.46c.59.23,1,.43,1.48.65a13.57,13.57,0,0,1,2.16,1.22c2.08,1.47.55,1.35,4.22,2.88,2.41,1,4.72,1.76,7.09,2.66,1.18.47,2.38.94,3.6,1.57A18.47,18.47,0,0,1,71.78,239c.28.25.54.49.82.77l.82.93c.28.39.54.77.8,1.19a8.26,8.26,0,0,1,.66,1.54,7.37,7.37,0,0,1,.34,2.62c0,.12,0,.31,0,.38l0,.2a2.33,2.33,0,0,1-.09.45c0,.1-.05.2-.07.3a1.65,1.65,0,0,0,.25,1.2,6.19,6.19,0,0,0,1.4,1.39,34.39,34.39,0,0,0,4.87,3.16l6.06,3.13A48.58,48.58,0,0,1,97,262.4a35.25,35.25,0,0,1,7.12,8.08c3.06,4.83,4.06,8.7,6.46,12.65a71.84,71.84,0,0,0,6.86,8.47c.51.56.85,1,1.47,1.61a62.84,62.84,0,0,1-4.76-4.15c-1.54-1.48-3.07-3.17-4.94-5.16a6.23,6.23,0,0,1-.88-1.38A21.86,21.86,0,0,0,104.53,279.23Z"/><path class="cls-7" d="M106.19,277.77a27,27,0,0,0-5.53-3.68,66.67,66.67,0,0,1-7.52-4.71A13.8,13.8,0,0,1,91,267.29c-1-1.25-1.2-2.45-2.05-3.46a76.41,76.41,0,0,0-6.13-5.78c-2.17-1.78-4.29-3.4-6.24-5.14A25.43,25.43,0,0,1,74,250.3a3.53,3.53,0,0,1-.85-2.58c0-.23.08-.45.14-.68s.05-.21.08-.35.06-.29.07-.56a5.87,5.87,0,0,0-.74-3.3A12,12,0,0,0,69,239.12a50.19,50.19,0,0,0-5.89-3.43c-.95-.49-1.88-.95-2.79-1.38s-1.82-.86-2.71-1.26c-1.78-.82-3.52-1.56-5.22-2.32l-2.55-1.1-.63-.28a6.93,6.93,0,0,0-.7-.28,4.67,4.67,0,0,0-1.67-.3,6.72,6.72,0,0,0-3.06.8,15.14,15.14,0,0,0-2.45,1.66,35.79,35.79,0,0,0-4.11,4.18c-2.57,3-5.08,6.39-7.76,10.22a114.61,114.61,0,0,0-7.67,12.55c-2.18,4.16-4.08,8.45-6.22,13.19-.72,1.46-1.67,4.14-2.76,6.76a35.07,35.07,0,0,1-3.33,6.5c-.44.53-1.75,3.2-3.21,5.39a19.66,19.66,0,0,1-2.06,2.66c-.58.58-.91.81-.64.54a19,19,0,0,0,2.23-3.53,52.14,52.14,0,0,0,4-11.14c1-3.7,1.81-7.49,3-11.83a32,32,0,0,1,2.46-6.33A33.81,33.81,0,0,1,19,254.83c2.84-3.49,6.15-6.69,9.12-10.12s5.42-6.53,8-9.67a51.16,51.16,0,0,1,4.25-4.63,16.91,16.91,0,0,1,2.81-2.13,7.64,7.64,0,0,1,4.28-1.13,5.93,5.93,0,0,1,1.36.25l.66.22.38.16c.5.21,1,.42,1.44.63a12.61,12.61,0,0,1,2.16,1.22c2.07,1.49,1.51.77,5.28,2.18a45.37,45.37,0,0,1,6.66,2.95l1.57.89,1.62,1a28.36,28.36,0,0,1,3.59,2.72,9.3,9.3,0,0,1,.83.87l.41.48.41.59a8.07,8.07,0,0,1,1.28,3.08c0,.3.08.61.11.92s0,.56,0,.85a3.61,3.61,0,0,1,0,.55l0,.2s0,.05,0,.08a3.37,3.37,0,0,0-.13.59,1.77,1.77,0,0,0,.35,1.14A9,9,0,0,0,77,250.17a36.45,36.45,0,0,0,4.95,3.14L88,256.49a48.69,48.69,0,0,1,9.39,6.17,35.52,35.52,0,0,1,7.08,8.12c3,4.84,4,8.7,6.43,12.66a71.21,71.21,0,0,0,6.86,8.48l.7.79c.12.13.24.26.37.39l.22.2c.08,0,.15.19.41.14,0,0-.16,0-.21,0l-.12-.06-.18-.12-.32-.24-.58-.48c-.38-.32-.73-.62-1.07-.93-.68-.61-1.3-1.22-1.92-1.89-1.24-1.32-2.45-2.88-4.27-4.92-.5-.56-.56-1.39-.83-1.87,1.33,1.7.37.44-.91-1.27Z"/></g></g></g><g class="cls-8"><path class="cls-9" d="M94.39,295s8.29-12.67,15.49-18.17c16.65-12.71,21.24-19,28.8-19.86,7.22-.78,43.36,38,43.36,38H94.39Z"/><g class="cls-3"><g class="cls-3"><path class="cls-4" d="M102.53,280a45.15,45.15,0,0,1,10-9.59,11,11,0,0,1,1.77-.91c.92-.36,1.62-.3,2.35-.62s1.58-.85,2-1.06a1.7,1.7,0,0,0,.91-.69,1.19,1.19,0,0,0,.08-.59.71.71,0,0,0,0-.11l0-.28a4.85,4.85,0,0,1,0-.71,5.12,5.12,0,0,1,.1-.83,5.93,5.93,0,0,1,.26-.77,5.84,5.84,0,0,1,1.46-1.91,12,12,0,0,1,1.42-1.08,51,51,0,0,1,5.42-3l5.34-2.63c.62-.3,1.24-.6,1.85-.87l.92-.42.47-.21.33-.14.17-.07.08,0,0,0h0l0-.07,1.43-.39.73-.11.74,0c.25,0,.49.06.73.09a5.88,5.88,0,0,1,.72.11,9.85,9.85,0,0,1,1.31.37,18.24,18.24,0,0,1,4.15,2.2,47.55,47.55,0,0,1,6.38,5.43c3.86,3.84,7.26,8,10.89,12.14,2.3,2.66,4.58,5.21,6.75,7.8s4.23,5.24,6.2,7.95c.59.87,1.16,1.7,1.73,2.5a9.94,9.94,0,0,0,1.79,2.09c.23.19.48.34.75.16s.32-.29.06.1a.88.88,0,0,1-.5.29,1.75,1.75,0,0,1-.73-.1,7.54,7.54,0,0,1-1.61-.81c-2.36-1.57-4.6-3.13-7-4.54s-5-2.78-7.72-4.32a20.52,20.52,0,0,1-6.6-5.81c-1.71-2.23-3.11-4.68-4.94-6.89a54.43,54.43,0,0,0-5.57-5.46,63.61,63.61,0,0,0-5.43-4.24,4.19,4.19,0,0,1-1.38-2.37,6.15,6.15,0,0,0-.48-1.38.74.74,0,0,0-1.06-.34c-.09-.08-.13,0-.21,0l-.28.1c-3.11,1.34-5.52,3.14-8.68,4.56-1.34.58-2.64,1.15-3.77,1.76a9.85,9.85,0,0,0-1.45.92,1.9,1.9,0,0,0-.23.19l-.12.12s0,0,0,0a.83.83,0,0,0-.22-.08H124s0,0,0,.07a1.29,1.29,0,0,0,0,.21c0,.26.08.51.14.76a4.81,4.81,0,0,1-.09,1.52,5.77,5.77,0,0,1-1.69,2.55l-.59.54-.57.41c-.4.3-.72.5-1,.73-.66.45-1.33.86-2,1.27-1,.65-2.17,1.27-3.16,1.81s-2,1.1-2.93,1.66q-2.88,1.7-5.65,3.43a35.35,35.35,0,0,0-7.14,5.34,28.65,28.65,0,0,0-4,6.07c-.23.45-.45.79-.71,1.26a36.2,36.2,0,0,1,5.06-9.59,5.39,5.39,0,0,1,.8-.78C101.19,281.87,101.81,280.94,102.53,280Z"/><path class="cls-5" d="M102.15,280.87a45.13,45.13,0,0,1,9.8-9.59,11,11,0,0,1,1.86-.95c1-.34,1.64-.29,2.41-.59s1.6-.78,2.31-1.18a5.87,5.87,0,0,0,1.39-.9,1.22,1.22,0,0,0,.33-.71,2.3,2.3,0,0,0,0-.4c0-.08-.06-.38-.08-.84a3.47,3.47,0,0,1,.22-1.37,2.76,2.76,0,0,1,.28-.59,3,3,0,0,1,.33-.49l.34-.41.34-.33a6.75,6.75,0,0,1,.68-.57,36.88,36.88,0,0,1,5.35-3.07l5.32-2.62,2.25-1,1.11-.49.55-.24.35-.15c.12-.08.26-.05.35-.21l1.26-.36a6.32,6.32,0,0,1,1.3-.13,9.31,9.31,0,0,1,2.49.47,17.27,17.27,0,0,1,3.87,2,45.78,45.78,0,0,1,6.09,5.12c3.72,3.64,7.07,7.55,10.66,11.54,4.7,5.23,9.26,10.11,13.31,15.52l1.78,2.5a21.07,21.07,0,0,0,1.84,2.36c.27.3.84.79,1.19.78a.67.67,0,0,0,.43-.21c.07-.09.08,0-.06.14a.87.87,0,0,1-.51.28,1.84,1.84,0,0,1-.74-.11,7.67,7.67,0,0,1-1.62-.81c-2.37-1.56-4.62-3.12-7.06-4.52s-5-2.78-7.74-4.31a20.49,20.49,0,0,1-6.61-5.8c-1.72-2.22-3.11-4.68-4.94-6.88a54.67,54.67,0,0,0-5.56-5.45,63.07,63.07,0,0,0-5.41-4.23,4.48,4.48,0,0,1-.94-1.18,3.78,3.78,0,0,1-.41-1.18,6.28,6.28,0,0,0-.46-1.37.71.71,0,0,0-1-.34c-.09-.08-.13,0-.21,0l-.27.1c-3.11,1.34-5.52,3.13-8.68,4.55-1.34.58-2.64,1.14-3.77,1.76a10,10,0,0,0-1.44.91,3.8,3.8,0,0,0-.35.3c0,.05-.14-.05-.3-.09H124s0,0,0,.06a1.22,1.22,0,0,0,0,.19c0,.26.08.51.14.77a4.94,4.94,0,0,1-.08,1.53,5.81,5.81,0,0,1-1.69,2.57l-.59.54-.57.42c-.41.3-.73.51-1.06.73-.67.45-1.33.86-2,1.27-1,.65-2.17,1.27-3.16,1.8s-2,1.09-2.93,1.66q-2.88,1.69-5.65,3.42a35.35,35.35,0,0,0-7.15,5.33,28.63,28.63,0,0,0-4,6.07l-.71,1.26a32.58,32.58,0,0,1,4.72-8.74,5.81,5.81,0,0,1,.78-.79C100.83,282.7,101.44,281.78,102.15,280.87Z"/><path class="cls-6" d="M101.58,282.29a60.59,60.59,0,0,1,4.35-5.07,35.27,35.27,0,0,1,5.15-4.46,10.21,10.21,0,0,1,1.87-1c1.06-.38,1.7-.3,2.53-.59,3.33-1.62,7-2.17,6.43-6.76a6.44,6.44,0,0,1,2.19-1.82c.8-.48,1.63-.88,2.46-1.3l5.15-2.45c2.22-1,4.39-2,6.52-2.84a4.51,4.51,0,0,1,3.41-.17,12.63,12.63,0,0,1,3.08,1.5,39.75,39.75,0,0,1,5.27,4.26c3.31,3.11,6.44,6.48,9.88,10,4.85,5.06,9.72,9.7,14.19,14.89,1.38,1.64,3.37,3.94,4.69,5.61a7.37,7.37,0,0,0,1.7,1.61c.68.48,1.19.3.82.41a6.52,6.52,0,0,1-3.12-1.29c-2.42-1.59-4.74-3.09-7.23-4.46s-5.1-2.7-7.87-4.21a20,20,0,0,1-6.65-5.74c-1.72-2.21-3.1-4.66-4.91-6.86a54.45,54.45,0,0,0-5.46-5.42,47,47,0,0,0-5.17-4,2.49,2.49,0,0,1-.73-1,6.05,6.05,0,0,1-.17-1,6.92,6.92,0,0,0-.38-1.12c-.12-.26-.27-.48-.55-.39l0-.07h-.12l-.15,0-.65.22c-3.11,1.31-5.51,3.09-8.64,4.48-1.31.57-2.59,1.13-3.64,1.71a8.72,8.72,0,0,0-1.16.75l-.06,0c-.06,0,.08,0-.15-.09a3.46,3.46,0,0,0-.45-.21.81.81,0,0,0-.22-.08h.36l.29,0h.15v.08a.49.49,0,0,0,0,.12c0,.28.08.56.14.84a5,5,0,0,1,0,.83,3.78,3.78,0,0,1-.4,1.61,8.38,8.38,0,0,1-2.17,2.59l-1.2.84-1,.66c-.68.41-1.36.82-2,1.21-2.24,1.3-4.13,2.22-6,3.38s-3.77,2.25-5.61,3.41a35,35,0,0,0-7.1,5.33,28.93,28.93,0,0,0-4,6c-.24.44-.45.79-.72,1.24a30.55,30.55,0,0,1,4.37-7.85,5.94,5.94,0,0,1,.76-.79C100.3,284.1,100.89,283.19,101.58,282.29Z"/><path class="cls-7" d="M102.17,282.94c1.13-1.34,1.82-2.29,2.72-3.42a24,24,0,0,1,4.29-4.18,10.19,10.19,0,0,1,1.77-1c1-.42,1.71-.41,2.53-.7,1.76-.68,3.5-1.27,5.2-2a15.91,15.91,0,0,0,2.59-1.41,4.52,4.52,0,0,0,2-2.62,5,5,0,0,0-.05-1.72c0-.4.05-.36.14-.51a6.47,6.47,0,0,1,1.6-1.21c1.44-.85,3.12-1.64,4.82-2.48s3.21-1.46,4.73-2.07l2.23-.87,1.09-.4.54-.19c.16,0,.23-.14.38-.1,1.09-.59,2.17-.17,3.41.56a22.85,22.85,0,0,1,3.64,2.86c2.4,2.24,4.81,4.89,7.83,7.85,4.89,4.87,8.93,8.7,14,13.5.75.78,2.28,2,3.72,3.19a24.35,24.35,0,0,1,3.45,3.43,25.37,25.37,0,0,0,3.05,2.81c.66.55,1.29,1,1.72,1.32s.64.39.41.32a13.37,13.37,0,0,1-2.46-1.27c-2.43-1.6-4.64-3-7-4.29s-4.78-2.56-7.56-4.06a20.61,20.61,0,0,1-6.76-5.84c-1.77-2.26-3.2-4.77-5-7a52.77,52.77,0,0,0-5.45-5.41c-.9-.78-1.8-1.51-2.68-2.18a26.51,26.51,0,0,0-2.45-1.7,2,2,0,0,1-.66-.93c-.08-.33-.05-.61-.15-1-.24-.69-.43-.66-.52-.36l0-.1h0l0,0,0,.05,0,.05L139,260a9.85,9.85,0,0,1-1.09.44c-3.1,1.25-5.62,1.67-8.74,3.08-2.51,1-5.52,2.7-4.51,2.57a4.49,4.49,0,0,1-.55,3.24,8.33,8.33,0,0,1-.48.7l-.56.64-.64.59-.32.29-.31.21c-.88.62-1.47,1-2.17,1.42s-1.36.8-2,1.2-1.08.61-1.62.9l-1.5.81c-1,.54-1.94,1.09-2.89,1.66q-2.85,1.69-5.58,3.44A34.7,34.7,0,0,0,99,286.62a29.15,29.15,0,0,0-4,6.07c-.12.22-.23.42-.34.61l-.18.3c-.05.08-.15.27-.16.2s0-.05.07-.12l.1-.23.19-.45.37-.86c.25-.55.52-1.07.82-1.6.6-1.06,1.34-2.16,2.41-3.66a6.77,6.77,0,0,1,1-.9c-.9,1.12-.25.29.69-.77S102.17,282.94,102.17,282.94Z"/></g></g></g><polygon class="cls-10" points="155.99 343.95 267.5 0.17 267.79 344.05 155.99 343.95"/><path class="cls-11" d="M200,99.83c.19.56.19.56.66.69a17.7,17.7,0,0,0,5.65-.18A8.48,8.48,0,0,0,212,96.84a4.45,4.45,0,0,0,.79-2.75c-.13-2.36-2.67-4.91-6-6.59-.8-.38-1.17-.84-1.14-1.14s0-.46.57-.59a3.84,3.84,0,0,0,1.93-1.26c.15-.36.32-.41.65-.32s.49.39.68.6a33.82,33.82,0,0,0,5,6.08,8.25,8.25,0,0,0,4,1.71c1.52.34,19.44,2.12,19.72,2.2.47.13.46,1.19.29,1.8s-1.22,1.41-1.26,1.55-.63-.08-1-.44c-.28-.59-.56-.67-1.45-.92s-17.13-2.06-17.62-2.3a2.17,2.17,0,0,0-1.36-.19c-.49.11-.57.59-.62,1.28L215,96.65a3.1,3.1,0,0,1-1.4,1.87,19,19,0,0,0-4.4,7.36,3.73,3.73,0,0,0,0,2.48c.23.42.23.42.83.09,2.65-.8,5.27-2.16,9.51-.08a27.75,27.75,0,0,0,3.35,1.17.42.42,0,0,1,.33.6c-.09.33-.29.47-.88.6-.6.33-1.86,1.73-2.7,2.2-.74.64-1.81.84-4.23.85,4.91,2.93,2.3,7.58,1.51,8.56s-1.58,1.81-2.41,2.94c-.74,1.35-1.62,1.4-1.94,1.31-.14,0-.05-.87.31-2.13.51-1.77-.24-2.84-1.27-5.92-1.11,5.58-7.38,7.56-8.17,7.83a3.68,3.68,0,0,1-2.18-.13c-.33-.09-.36-.51-.2-1.07s-.76-3.15-1-4.21c-.37-1.17-.28-1.65.82-4.05s4.42-4.63,5.44-5.39.84-1.17.84-1.17l0-.85a15.78,15.78,0,0,1,1.72-8.23,64,64,0,0,1-8.12,1.39c-.51,0-.55.14-.83.62-.13.47-1.44.79-2.89.93-4.12,5.87-3.65,10.7-3.27,11.32.1.69,0,1-.17,1.11a3.45,3.45,0,0,1-1.93.2A17.47,17.47,0,0,1,186.6,111c-1.1-2.64.31-6,.78-6.89a33.08,33.08,0,0,1-4.83,0c-.71,0-.8-.89-.67-1.35a4.67,4.67,0,0,1,.88-1.31c.53-.6.6-1,4-3.69A11.52,11.52,0,0,1,196.43,96,6.5,6.5,0,0,1,200,99.83ZM187.53,101c-.24.13-.41.54-.21.55a17.5,17.5,0,0,0,3-.34,24.32,24.32,0,0,1,3.64-.56,9.37,9.37,0,0,1,3.51.61c.61.18,1-.38.48-.77A5.29,5.29,0,0,0,193.86,99,23.61,23.61,0,0,0,187.53,101Zm2.61,5.8c-.6,1.9-.91,4.53-.13,6.37.41,1,1.8,2.14,1.65,1.64l0-.41c-.88-2.53-.51-5.75.51-8.58C191.48,105.8,190.32,106.16,190.14,106.77Zm17.14,7.58a7.87,7.87,0,0,0-1.87,1.93,22.87,22.87,0,0,0-3,5.6c-.59,1.7.77,4,.91,2.79a10.34,10.34,0,0,1,1.72-4.55,35.63,35.63,0,0,0,2.49-4.93C207.61,114.95,207.7,114.47,207.28,114.35Zm4.65-4.05c-.48.27-.71,1.06-.5,1a41.46,41.46,0,0,0,4.18-.31c1.07,0,2.13-.19,3.22-.33.61-.18.68-.26.11-.57a6.18,6.18,0,0,0-2.89-.63A9.17,9.17,0,0,0,211.93,110.29Zm3,5.72c-.32-1-2.45-.61-2-.07a11.48,11.48,0,0,1,2,3.82,4.23,4.23,0,0,1,.14,1.45c.7-.15.95-.84.86-1.77A11.79,11.79,0,0,0,215,116Z"/><path class="cls-12" d="M267.61.09c-3.32,12-6.86,24-10.54,35.94s-7.42,23.83-11.42,35.65l-6.14,17.69c-2.06,5.89-4.12,11.78-6.08,17.71-3.94,11.84-7.6,23.77-11.18,35.73s-7.19,23.9-10.94,35.81-7.45,23.82-11.32,35.68c-7.81,23.7-15.81,47.35-24.38,70.8l-.29-.09c6.76-24,14.1-47.9,21.62-71.7,3.79-11.89,7.75-23.72,11.68-35.57s8-23.66,12.06-35.44,8.09-23.61,11.82-35.52c1.87-6,3.65-11.93,5.42-17.92l5.36-17.94C247,59,250.87,47.14,254.87,35.31S263,11.71,267.33,0Z"/></g></g></svg>