<?xml version="1.0" encoding="utf-8"?>
<!-- Generator: Adobe Illustrator 21.0.0, SVG Export Plug-In . SVG Version: 6.00 Build 0)  -->
<svg version="1.1" id="Layer_1" xmlns="http://www.w3.org/2000/svg" xmlns:xlink="http://www.w3.org/1999/xlink" x="0px" y="0px"
	 viewBox="0 0 16 15" style="enable-background:new 0 0 16 15;" xml:space="preserve">
<style type="text/css">
	.st0{fill:#FFCE00;}
</style>
<title>Asset 23</title>
<g id="Layer_2">
	<g id="Elements">
		<path class="st0" d="M8,4.6l0.6,1.3l0.5,1L10.2,7l1.4,0.2l-1,0.9L9.7,8.8L10,9.9l0.2,1.4L9,10.6l-1-0.5l-0.9,0.5l-1.3,0.7L6,9.9
			l0.2-1.1L5.4,8.1l-1-0.9L5.8,7l1.1-0.1l0.5-1L8,4.6 M8,0L5.6,5L0,5.7l4.1,3.8l-1,5.4L8,12.4l4.9,2.6l-1-5.4L16,5.7L10.4,5L8,0z"/>
	</g>
</g>
</svg>
