<svg xmlns="http://www.w3.org/2000/svg" viewBox="0 0 35 25"><defs><style>.cls-1{fill:#ccf8f5;}.cls-1,.cls-2,.cls-3{stroke:#036;stroke-linecap:round;stroke-linejoin:round;stroke-width:2px;}.cls-2{fill:none;}.cls-3{fill:#fff;}</style></defs><title>truck</title><g id="Layer_2" data-name="Layer 2"><g id="Elements"><polygon class="cls-1" points="20 12 8.27 1 3.61 1 12.99 15 20 15 20 12"/><polyline class="cls-2" points="3 1 3 8.47 5 9.59 5 11.89 4 13 2 13 1 11.89"/><polyline class="cls-3" points="20 12 20 5 25.3 5 27.9 10.17 32 11.93"/><polyline class="cls-1" points="31 20 33.5 20 34 19.5 34 18.5 33.5 18 32 18"/><polyline class="cls-1" points="22.13 15 6.13 15 4.36 20 31 20 32 19.27 32 11.93 20 12"/><circle class="cls-1" cx="27" cy="21" r="3"/><line class="cls-1" x1="20" y1="12" x2="20" y2="20"/><circle class="cls-1" cx="11" cy="21" r="3"/></g></g></svg>